<svg width="58" height="58" viewBox="0 0 58 58" fill="none" xmlns="http://www.w3.org/2000/svg">
<g clip-path="url(#clip0_20_1047)">
<path d="M36.3448 32.3738C35.3402 31.4641 33.9566 31.028 32.1559 31.028H21.6837V41.6046H32.1559C33.9565 41.6046 35.3591 41.1402 36.3448 40.2019C37.3399 39.2731 37.8421 37.9464 37.8421 36.2405C37.8421 34.563 37.3494 33.2836 36.3448 32.3738ZM34.9042 25.5597C35.8519 24.7447 36.3258 23.5885 36.3258 22.0721C36.3258 20.3662 35.8993 19.1626 35.0464 18.4708C34.1935 17.779 32.9614 17.4284 31.3502 17.4284H21.6836V26.7729H31.3502C32.7719 26.7729 33.9565 26.3748 34.9042 25.5597Z" fill="#5E3B7F"/>
<path d="M48.3334 0H9.66663C4.35 0 0 4.35 0 9.66663V48.3333C0 53.65 4.35 58 9.66663 58H48.3333C53.65 58 58 53.65 58 48.3334V9.66663C58 4.35 53.65 0 48.3334 0ZM43.0546 40.7233C42.5807 41.8794 41.8416 42.8746 40.8275 43.7085C39.8135 44.5425 38.5246 45.2059 36.9419 45.6988C35.3593 46.1916 33.4828 46.438 31.303 46.438H15.7605V12.6046H32.2033C35.2359 12.6046 37.6716 13.2964 39.5006 14.6895C41.3296 16.0827 42.2489 18.1771 42.2489 20.9918C42.2489 22.6977 41.8319 24.1571 40.998 25.3702C40.164 26.5834 38.9699 27.5311 37.4156 28.1945V28.2893C39.5005 28.7347 41.0833 29.7204 42.1541 31.2461C43.225 32.7814 43.7652 34.6958 43.7652 37.0082C43.7653 38.3349 43.5284 39.5765 43.0546 40.7233Z" fill="#5E3B7F"/>
</g>
<defs>
<clipPath id="clip0_20_1047">
<rect width="58" height="58" fill="white"/>
</clipPath>
</defs>
</svg>
