<svg width="33" height="33" viewBox="0 0 33 33" fill="none" xmlns="http://www.w3.org/2000/svg">
<path d="M28.5 0H4.5C2.01472 0 0 2.01472 0 4.5V28.5C0 30.9853 2.01472 33 4.5 33H28.5C30.9853 33 33 30.9853 33 28.5V4.5C33 2.01472 30.9853 0 28.5 0Z" fill="#1D70FA"/>
<path d="M19.5863 10.8671H24.7556V12.1533H19.5863V10.8671ZM26.8125 18.0952C26.8125 15.4102 24.7331 13.2333 22.17 13.2333C19.6069 13.2333 17.5275 15.4102 17.5275 18.0952C17.5275 20.7802 19.4569 22.9552 22.17 22.9552C24.2325 22.9552 25.995 22.0477 26.5931 19.8689H24.4163C24.2164 20.2419 23.9189 20.5536 23.5556 20.7706C23.1923 20.9876 22.7769 21.1017 22.3538 21.1008C21.1369 21.1008 20.0662 20.2289 20.13 18.7627H26.7769C26.8125 18.5489 26.8125 18.3277 26.8125 18.0952ZM20.1375 17.1408C20.2987 15.9333 21.1519 15.1627 22.1813 15.1627C23.2106 15.1627 24.0562 15.9333 24.225 17.1408H20.1375ZM16.7325 18.2996C16.5637 16.4358 14.4562 15.8077 14.4562 15.8077C15.2569 15.4327 16.2113 14.6658 16.2019 12.9764C16.1869 10.5389 13.6444 10.0439 12.8269 10.0439H6.1875V22.7227H12.2194C13.0575 22.7227 13.95 22.6121 14.6569 22.2596C16.5637 21.3221 16.8975 20.1652 16.7325 18.2996ZM8.9775 12.2321H11.8312C11.8312 12.2321 13.5187 12.1927 13.5187 13.6852C13.5187 15.1777 11.8312 15.1364 11.8312 15.1364H8.9775V12.2321ZM12 20.5702H8.9775V17.1033H12C12 17.1033 14.01 17.0564 14.01 18.8358C14.01 20.6152 12 20.5702 12 20.5702Z" fill="white"/>
</svg>
