<svg width="33" height="33" viewBox="0 0 33 33" fill="none" xmlns="http://www.w3.org/2000/svg">
<path d="M28.5529 0H4.44682C1.99096 0 0 1.99088 0 4.44682V28.553C0 31.009 1.99088 32.9998 4.44682 32.9998H16.3358L16.3561 21.2075H13.2924C13.1012 21.2075 12.9177 21.1317 12.7823 20.9967C12.6468 20.8618 12.5703 20.6786 12.5696 20.4874L12.5549 16.6862C12.5545 16.5911 12.573 16.4968 12.6091 16.4088C12.6453 16.3207 12.6985 16.2407 12.7657 16.1733C12.8328 16.1059 12.9126 16.0524 13.0005 16.0159C13.0884 15.9794 13.1826 15.9606 13.2778 15.9606H16.3359V12.2877C16.3359 8.02534 18.9391 5.70445 22.7414 5.70445H25.8614C26.0532 5.70445 26.237 5.78062 26.3726 5.91619C26.5082 6.05176 26.5843 6.23563 26.5843 6.42736V9.63252C26.5843 9.82418 26.5082 10.008 26.3728 10.1435C26.2373 10.2791 26.0535 10.3553 25.8618 10.3554L23.9471 10.3563C21.8793 10.3563 21.4789 11.3389 21.4789 12.7809V15.9607H26.0226C26.4555 15.9607 26.7914 16.3387 26.7404 16.7687L26.2899 20.5698C26.269 20.7456 26.1844 20.9076 26.0521 21.0251C25.9198 21.1427 25.749 21.2076 25.572 21.2076H21.4991L21.4789 33H28.553C31.0089 33 32.9998 31.0091 32.9998 28.5533V4.44682C32.9997 1.99088 31.0088 0 28.5529 0Z" fill="#475993"/>
</svg>
