<svg width="33" height="33" viewBox="0 0 33 33" fill="none" xmlns="http://www.w3.org/2000/svg">
<path d="M2.15208 2.29109C-0.433211 4.97645 0.0959105 7.82904 0.0959105 16.4951C0.0959105 23.6917 -1.15972 30.9061 5.4118 32.6045C7.46386 33.1323 25.6459 33.1323 27.6952 32.6018C30.4313 31.8958 32.6574 29.6765 32.9617 25.8068C33.0042 25.2667 33.0042 7.73309 32.9604 7.18203C32.6369 3.0601 30.0996 0.684536 26.7562 0.203392C25.99 0.0923584 25.8364 0.0594596 21.905 0.0526057C7.96008 0.0594596 4.90324 -0.561504 2.15208 2.29109Z" fill="url(#paint0_linear_55_42)"/>
<path d="M16.5424 4.35547C11.5651 4.35547 6.83861 3.91271 5.03329 8.54595C4.28759 10.4596 4.39588 12.9448 4.39588 16.5033C4.39588 19.626 4.29581 22.5608 5.03329 24.4593C6.8345 29.0953 11.5993 28.6512 16.5396 28.6512C21.3058 28.6512 26.2201 29.1474 28.0473 24.4593C28.7944 22.5265 28.6847 20.0783 28.6847 16.5033C28.6847 11.7577 28.9466 8.69399 26.645 6.39382C24.3147 4.0635 21.1633 4.35547 16.5369 4.35547H16.5424ZM15.454 6.54461C25.8363 6.52816 27.1577 5.37397 26.4284 21.408C26.1694 27.0789 21.8514 26.4566 16.5437 26.4566C6.86603 26.4566 6.58776 26.1797 6.58776 16.4978C6.58776 6.70362 7.3554 6.55009 15.454 6.54187V6.54461ZM23.0262 8.56103C22.6397 8.56103 22.2691 8.71455 21.9958 8.98781C21.7225 9.26108 21.569 9.63171 21.569 10.0182C21.569 10.4046 21.7225 10.7753 21.9958 11.0485C22.2691 11.3218 22.6397 11.4753 23.0262 11.4753C23.4126 11.4753 23.7832 11.3218 24.0565 11.0485C24.3298 10.7753 24.4833 10.4046 24.4833 10.0182C24.4833 9.63171 24.3298 9.26108 24.0565 8.98781C23.7832 8.71455 23.4126 8.56103 23.0262 8.56103ZM16.5424 10.2649C15.7232 10.265 14.9121 10.4264 14.1553 10.74C13.3986 11.0535 12.711 11.5131 12.1318 12.0924C10.9621 13.2623 10.3051 14.849 10.3053 16.5033C10.3055 18.1577 10.9629 19.7442 12.1328 20.9139C13.3027 22.0836 14.8894 22.7406 16.5437 22.7404C18.1981 22.7402 19.7846 22.0828 20.9543 20.9129C22.124 19.743 22.781 18.1563 22.7808 16.502C22.7806 14.8476 22.1232 13.2611 20.9533 12.0914C19.7834 10.9217 18.1967 10.2647 16.5424 10.2649ZM16.5424 12.454C21.8953 12.454 21.9021 20.5526 16.5424 20.5526C11.1908 20.5526 11.1826 12.454 16.5424 12.454Z" fill="white"/>
<defs>
<linearGradient id="paint0_linear_55_42" x1="2.21516" y1="30.8501" x2="32.7911" y2="4.38698" gradientUnits="userSpaceOnUse">
<stop stop-color="#FFDD55"/>
<stop offset="0.5" stop-color="#FF543E"/>
<stop offset="1" stop-color="#C837AB"/>
</linearGradient>
</defs>
</svg>
