<svg width="34" height="34" viewBox="0 0 34 34" fill="none" xmlns="http://www.w3.org/2000/svg">
<path d="M17.2443 0C8.14023 0 0.743164 7.39707 0.743164 16.5011C0.743164 23.2722 4.7831 29.0761 10.6438 31.6366C10.5869 30.4986 10.6438 29.0761 10.9283 27.8243C11.2698 26.4587 13.0336 18.834 13.0336 18.834C13.0336 18.834 12.5215 17.7529 12.5215 16.2166C12.5215 13.7698 13.944 11.949 15.7079 11.949C17.1873 11.949 17.9271 13.087 17.9271 14.4526C17.9271 15.9321 16.9597 18.2081 16.4476 20.3134C16.0493 22.0773 17.3011 23.4997 19.065 23.4997C22.1946 23.4997 24.2999 19.4598 24.2999 14.7371C24.2999 11.0954 21.8532 8.42117 17.4149 8.42117C12.4077 8.42117 9.27823 12.1766 9.27823 16.3303C9.27823 17.7528 9.67651 18.777 10.3593 19.5736C10.6438 19.915 10.7007 20.0857 10.5869 20.484C10.53 20.7685 10.3024 21.5082 10.2455 21.7927C10.1316 22.1909 9.79027 22.3617 9.39199 22.1909C7.05909 21.2236 6.03486 18.72 6.03486 15.875C6.03486 11.2092 9.96096 5.57608 17.8132 5.57608C24.1291 5.57608 28.2829 10.1281 28.2829 15.0215C28.2829 21.5081 24.6982 26.3447 19.4065 26.3447C17.6425 26.3447 15.9356 25.3774 15.3665 24.2963C15.3665 24.2963 14.3992 28.1086 14.2286 28.8484C13.8871 30.1002 13.2043 31.4089 12.5784 32.3762C14.0579 32.8314 15.6511 33.059 17.2443 33.059C26.3483 33.059 33.7453 25.6619 33.7453 16.5579C33.7453 7.45385 26.3483 0 17.2443 0Z" fill="#CB1F24"/>
</svg>
