<svg width="464" height="400" viewBox="0 0 464 400" fill="none" xmlns="http://www.w3.org/2000/svg">
<path d="M291.469 311.311C281.633 313.031 271.704 314.187 262.006 315.144C210.806 320.19 157.77 314.913 108.14 301.567C91.1005 296.984 74.1876 291.235 59.1912 281.965C25.1462 260.907 -2.45697 204.79 25.4001 169.001C46.3074 142.137 81.1606 133.963 108.51 115.919C124.915 105.09 134.497 89.4585 146.204 74.2196C165.101 49.618 188.468 25.8362 220.435 20.7334C256.062 15.0419 293.732 26.3556 325.652 41.5483C356.096 56.0484 385.765 76.0206 406.615 102.885C458.357 169.532 404.513 258.575 341.238 294.745C326.045 303.438 308.89 308.263 291.469 311.311ZM392.231 72.9497C391.607 72.9497 390.995 72.6957 390.544 72.2108C378.988 59.6273 365.551 48.5559 350.6 39.3317C338.629 31.9316 325.664 25.686 312.076 20.7681C293.523 14.0491 277.441 11.2437 271.531 10.7127C270.273 10.5972 269.338 9.47738 269.454 8.21901C269.568 6.96066 270.689 6.02554 271.948 6.14099C272.662 6.21025 289.784 7.83804 313.495 16.4042C327.408 21.4261 340.672 27.8218 352.932 35.3834C368.264 44.8501 382.059 56.1985 393.927 69.1168C394.781 70.0519 394.723 71.4951 393.789 72.3609C393.339 72.7419 392.785 72.9497 392.231 72.9497Z" fill="url(#paint0_radial_125_4106)"/>
<path d="M231.036 279.458H58.5943C55.0387 279.458 52.1641 276.584 52.1641 273.027V66.0096C52.1641 62.4538 55.0387 59.5792 58.5943 59.5792H231.036C234.593 59.5792 237.466 62.4538 237.466 66.0096V273.039C237.466 276.584 234.593 279.458 231.036 279.458Z" fill="white"/>
<path d="M231.032 280.036H58.5899C54.734 280.036 51.5938 276.895 51.5938 273.039V66.0097C51.5938 62.1537 54.734 59.0137 58.5899 59.0137H231.032C234.887 59.0137 238.028 62.1537 238.028 66.0097V273.039C238.028 276.895 234.887 280.036 231.032 280.036ZM58.5899 60.1451C55.3573 60.1451 52.7252 62.7772 52.7252 66.0097V273.039C52.7252 276.271 55.3573 278.903 58.5899 278.903H231.032C234.264 278.903 236.897 276.271 236.897 273.039V66.0097C236.897 62.7772 234.264 60.1451 231.032 60.1451H58.5899Z" fill="#263156"/>
<path d="M69.7969 88.3257H219.828C224.193 88.3257 227.731 91.8638 227.731 96.2281V261.822C227.731 266.186 224.193 269.724 219.828 269.724H69.7969C65.4326 269.724 61.8945 266.186 61.8945 261.822V96.2281C61.8945 91.8638 65.4326 88.3257 69.7969 88.3257Z" fill="#B0BEC5" stroke="#B0BEC5" strokeWidth="1.59498"/>
<path d="M65.0724 76.0877C66.711 76.0877 68.0395 74.7594 68.0395 73.1208C68.0395 71.4821 66.711 70.1538 65.0724 70.1538C63.4339 70.1538 62.1055 71.4821 62.1055 73.1208C62.1055 74.7594 63.4339 76.0877 65.0724 76.0877Z" fill="#263156"/>
<path d="M85.5841 76.0877C87.2228 76.0877 88.5511 74.7594 88.5511 73.1208C88.5511 71.4821 87.2228 70.1538 85.5841 70.1538C83.9455 70.1538 82.6172 71.4821 82.6172 73.1208C82.6172 74.7594 83.9455 76.0877 85.5841 76.0877Z" fill="#263156"/>
<path d="M75.3304 76.0879C76.969 76.0879 78.2973 74.7596 78.2973 73.1209C78.2973 71.4823 76.969 70.154 75.3304 70.154C73.6918 70.154 72.3633 71.4823 72.3633 73.1209C72.3633 74.7596 73.6918 76.0879 75.3304 76.0879Z" fill="#263156"/>
<path d="M314.913 182.562C314.913 182.562 293.647 215.222 279.171 196.762C273.757 189.859 273.456 182.574 276.388 174.528C278.028 170.024 280.071 165.015 278.882 160.143C277.44 154.221 272.417 150.099 271.956 143.669C271.47 136.915 277.047 131.951 278.305 125.613C279.32 120.464 276.861 115.28 276.181 110.224C275.28 103.436 279.759 98.2521 284.434 93.8999C287.009 91.4985 289.11 89.3859 290.716 86.211C292.551 82.5745 293.787 78.5917 296.36 75.3707C301.544 68.9057 310.434 66.8277 318.33 68.1669C328.859 69.9447 338.44 76.4791 345.322 84.4332C350.885 90.8636 357.87 98.206 358.147 107.361C358.298 112.406 356.52 116.839 357.223 122.023C357.986 127.61 360.029 132.944 362.292 138.081C365.709 145.815 369.345 153.909 371.435 162.278C373.04 168.674 375.66 179.353 368.942 183.844C359.394 190.24 338.337 170.129 338.026 153.435C337.714 136.742 338.026 117.936 338.026 117.936L314.301 119.714C314.301 119.714 310.907 136.049 315.536 148.114C320.155 160.201 318.919 174.758 314.913 182.562Z" fill="#263156"/>
<path d="M352.07 169.633L341.935 173.455C341.935 173.455 332.214 185.115 332.168 185.347C321.477 237.448 296.402 182.241 296.402 182.241L297.419 166.078L311.421 160.687L314.169 134.458L331.556 127.554L338.587 125.845C338.587 125.845 340.49 148.784 342.926 156.046C344.636 161.136 352.07 169.633 352.07 169.633Z" fill="#FFC5C2"/>
<path d="M343.605 103.368C343.605 103.368 340.096 154.442 316.429 155.168C305.889 155.491 299.274 141.153 297.646 126.665C295.729 109.637 299.84 92.0078 299.84 92.0078L334.265 79.0548L343.605 103.368Z" fill="#FFC5C2"/>
<path d="M316.088 155.55C314.899 155.55 313.721 155.366 312.601 155.008C312.405 154.938 312.289 154.731 312.359 154.522C312.429 154.326 312.636 154.21 312.843 154.28C313.999 154.649 315.211 154.822 316.435 154.789C321.421 154.638 325.982 152.19 329.976 147.537C330.114 147.376 330.358 147.365 330.519 147.492C330.681 147.63 330.691 147.872 330.565 148.035C326.421 152.86 321.675 155.389 316.457 155.55C316.319 155.55 316.203 155.55 316.088 155.55ZM347.061 117.626C345.272 110.745 337.653 108.229 331.303 106.508C318.639 103.057 315.568 91.916 315.568 91.916C315.568 91.916 310.028 112.616 296.277 108.91C296.277 108.91 296.74 67.2221 327.205 75.4303C362.763 85.0124 347.061 117.626 347.061 117.626Z" fill="#263156"/>
<path d="M342.24 114.832C342.24 114.832 351.246 114.705 349.49 121.805C347.736 128.905 337.715 132.495 337.715 132.495L342.24 114.832Z" fill="#FFC5C2"/>
<path d="M342.813 126.055C342.685 126.055 342.558 125.986 342.49 125.87C342.385 125.686 342.443 125.455 342.616 125.339C345.571 123.55 346.138 122.257 346.091 121.484C346.033 120.41 344.763 119.821 344.752 119.821C344.556 119.729 344.475 119.509 344.567 119.313C344.659 119.117 344.879 119.036 345.075 119.117C345.144 119.152 346.773 119.902 346.864 121.426C346.957 122.857 345.652 124.381 343.02 125.986C342.951 126.044 342.881 126.055 342.813 126.055Z" fill="#263156"/>
<path d="M348.666 113.41C348.666 113.41 345.976 113.491 344.14 115.684C342.305 117.878 339.58 129.388 338.819 129.214C338.068 129.053 342.202 112.844 332.076 103.516C321.951 94.1766 339.684 95.9313 339.684 95.9313C339.684 95.9313 347.986 103.851 347.928 104.624C347.87 105.398 348.666 113.41 348.666 113.41Z" fill="#263156"/>
<path d="M305.19 121.325C306.186 120.986 306.662 119.738 306.253 118.537C305.844 117.335 304.704 116.637 303.708 116.976C302.713 117.315 302.238 118.564 302.647 119.765C303.056 120.966 304.194 121.665 305.19 121.325Z" fill="#263156"/>
<path d="M313.649 133.764C312.967 133.764 312.332 133.464 311.893 132.945C311.455 132.414 311.281 131.721 311.409 131.04L311.951 128.35C311.997 128.142 312.193 128.004 312.402 128.05C312.609 128.096 312.748 128.292 312.702 128.5L312.16 131.19C312.067 131.64 312.183 132.102 312.483 132.448C312.772 132.795 313.198 132.991 313.649 132.991C313.66 132.991 313.66 132.991 313.672 132.991L314.238 132.979C314.445 132.968 314.617 133.141 314.629 133.36C314.629 133.568 314.468 133.741 314.249 133.753L313.684 133.764C313.66 133.764 313.66 133.764 313.649 133.764ZM319.294 112.072C319.294 112.072 324.638 110.433 328.368 113.503L319.294 112.072ZM307.761 111.98C307.761 111.98 303.628 110.352 299.449 113.492L307.761 111.98ZM304.528 116.875C304.528 116.875 301.573 116.378 299.68 118.976C299.68 118.976 302.011 117.867 303.663 118.064L304.528 116.875Z" fill="#263156"/>
<path d="M324.476 121.425C324.772 120.191 324.184 118.992 323.16 118.747C322.138 118.501 321.068 119.303 320.772 120.536C320.476 121.77 321.065 122.969 322.088 123.215C323.111 123.46 324.181 122.659 324.476 121.425Z" fill="#263156"/>
<path d="M322.336 118.707C322.336 118.707 325.233 117.934 327.357 120.347C327.357 120.347 324.933 119.458 323.305 119.804L322.336 118.707Z" fill="#263156"/>
<path d="M361.546 168.04C361.546 168.04 348.686 164.206 343.028 156.298L314.975 156.114C314.975 156.114 309.457 160.385 298.282 165.025C287.107 169.667 301.791 198.286 301.791 198.286C301.791 198.286 342.648 205.813 343.594 206.009C344.541 206.194 359.226 191.325 359.226 191.325L363.37 173.811L361.546 168.04Z" fill="#FFC5C2"/>
<path d="M386.829 383.914C386.783 387.863 386.61 391.788 386.322 395.62H325.839C324.547 379.18 323.438 366.621 323.438 366.621C323.438 366.621 322.099 380.255 320.933 395.62H263.972C262.472 385.75 261.581 376.93 261.639 370.199C262.044 328.315 276.059 299.269 276.059 299.269L368.797 297.11C368.809 297.098 387.43 336.316 386.829 383.914Z" fill="#0E145A"/>
<path d="M386.829 383.914C386.783 387.863 386.61 391.788 386.322 395.62H325.839C324.547 379.18 323.438 366.621 323.438 366.621C323.438 366.621 322.099 380.255 320.933 395.62H263.972C262.472 385.75 261.581 376.93 261.639 370.199C262.044 328.315 276.059 299.269 276.059 299.269L368.797 297.11C368.809 297.098 387.43 336.316 386.829 383.914Z" fill="black"/>
<path d="M323.825 366.621H323.041V340.531L315.824 330.094L316.459 329.655L323.825 340.288V366.621Z" fill="#B0BEC5"/>
<path d="M331.785 330.168L323.133 340.163L323.719 340.669L332.369 330.674L331.785 330.168Z" fill="#B0BEC5"/>
<path d="M370.078 212.72C370.078 230.291 372.341 241.351 371.083 252.629C370.182 260.746 369.871 286.559 369.859 297.366C328.068 317.372 280.341 301.544 275.309 299.166C276.648 293.059 280.769 270.2 280.953 266.184C281.716 250.114 277.94 231.792 280.711 217.731C283.459 203.669 283.724 182.08 279.95 169.023C279.95 169.023 292.095 166.392 298.282 165.019C298.282 165.019 296.528 200.402 326.394 200.402C350.915 200.402 361.536 168.02 361.536 168.02C361.536 168.02 366.28 169.682 381.369 172.545C381.381 172.569 370.078 195.149 370.078 212.72Z" fill="#B0BEC5"/>
<path d="M379.874 173.282C379.874 173.282 389.767 176.698 391.742 187.307C393.716 197.917 403.252 271.653 404.511 275.797C405.769 279.931 440.264 343.067 440.264 343.067L424.818 348.332C424.818 348.332 392.031 310.985 382.184 284.237C378.939 275.44 372.797 245.573 372.797 245.573L373.755 186.962L377.173 176.353L379.874 173.282Z" fill="#FFC5C2"/>
<path d="M439.067 341.137C439.067 341.137 447.413 354.934 447.955 358.374C448.497 361.802 446.685 373.105 445.242 374.733C443.799 376.36 439.551 378.981 435.661 380.066C431.77 381.151 427.89 380.159 427.89 379.338C427.89 378.531 429.877 376.083 432.047 375.725C432.047 375.725 428.248 375.183 428.699 373.463C429.149 371.742 432.313 372.828 434.668 372.47C437.022 372.111 440.267 368.856 440.186 366.327C440.093 363.8 436.757 358.466 436.757 358.466C436.757 358.466 430.535 358.258 427.718 356.481C425.005 354.76 423.977 349.611 424.128 345.005C424.277 340.376 439.067 341.137 439.067 341.137Z" fill="#FFC5C2"/>
<path d="M432.05 376.097C431.854 376.097 431.68 375.936 431.669 375.74C431.657 375.531 431.819 375.347 432.027 375.335C434.232 375.208 440.109 374.365 440.709 371.918C441.482 368.802 441.333 367.462 441.333 367.45C441.309 367.243 441.459 367.046 441.666 367.023C441.875 366.989 442.071 367.139 442.094 367.346C442.106 367.404 442.278 368.813 441.447 372.103C440.57 375.589 432.408 376.075 432.061 376.097H432.05Z" fill="#E49591"/>
<path d="M436.748 358.457C436.748 358.457 436.113 363.34 436.39 365.961C436.655 368.581 437.29 373.187 434.126 373.28C430.964 373.373 430.155 368.224 430.064 363.79C429.971 359.357 427.258 355.479 427.258 355.479L434.035 351.507L436.748 358.457Z" fill="#FFC5C2"/>
<path d="M381.384 172.567C381.384 172.567 391.74 175.061 394.58 190.08C397.408 205.1 404.808 271.919 405.686 275.407C406.551 278.892 414.829 294.339 414.829 294.339C414.829 294.339 405.686 290.207 395.018 309.578C395.018 309.578 382.389 291.072 378.694 276.931C374.988 262.776 367.738 228.362 367.738 228.362L368.904 183.765L376.963 172.451L381.384 172.567Z" fill="#B0BEC5"/>
<path d="M371.465 245.399C371.257 245.399 371.084 245.225 371.084 245.018C371.072 241.069 370.796 236.867 370.507 232.433C370.126 226.765 369.711 220.335 369.711 212.727C369.711 206.782 370.991 199.648 373.508 191.519C373.566 191.312 373.785 191.207 373.981 191.265C374.178 191.323 374.293 191.542 374.236 191.74C371.742 199.797 370.472 206.851 370.472 212.727C370.472 220.311 370.9 226.73 371.268 232.388C371.568 236.844 371.847 241.046 371.857 245.029C371.847 245.225 371.673 245.399 371.465 245.399Z" fill="#263156"/>
<path d="M279.963 169.042C279.963 169.042 260.382 173.555 258.87 189.002C257.369 204.437 258.87 248.503 258.87 248.503L269.042 278.254C269.042 278.254 279.835 275.749 280.713 267.205C281.59 258.674 280.84 232.191 280.84 232.191L283.344 212.484L286.231 180.852L279.963 169.042Z" fill="#B0BEC5"/>
<path d="M280.967 266.574C280.956 266.574 280.955 266.574 280.945 266.574C280.736 266.562 280.575 266.388 280.575 266.169C280.887 259.577 280.424 252.512 279.986 245.678C279.328 235.553 278.705 225.994 280.345 217.67C281.971 209.38 282.699 198.482 282.295 188.508C282.283 188.301 282.446 188.116 282.664 188.116C282.872 188.105 283.057 188.277 283.057 188.485C283.461 198.506 282.722 209.473 281.094 217.821C279.477 226.039 280.101 235.553 280.748 245.631C281.199 252.488 281.66 259.577 281.336 266.215C281.336 266.423 281.164 266.574 280.967 266.574Z" fill="#263156"/>
<path d="M270.044 246.992L263.961 221.444L245.5 219.377L246.817 247.234L248.699 260.603L264.711 264.563L269.41 255.143L270.044 246.992Z" fill="#FFC5C2"/>
<path d="M270.044 246.998C270.044 246.998 275.321 256.661 276.568 260.551C277.826 264.441 281.07 264.602 280.965 266.196C280.586 271.472 277.952 287.161 270.044 287.657C262.137 288.154 251.724 269.706 248.837 262.178C245.951 254.651 246.829 247.24 246.829 247.24C246.829 247.24 247.706 260.423 256.491 258.657C265.277 256.891 270.044 246.998 270.044 246.998Z" fill="#B0BEC5"/>
<path d="M276.567 260.929C276.404 260.929 276.255 260.826 276.197 260.663C274.961 256.854 269.755 247.271 269.697 247.168C269.594 246.983 269.663 246.752 269.847 246.648C270.032 246.545 270.264 246.613 270.366 246.798C270.585 247.191 275.666 256.542 276.925 260.421C276.993 260.617 276.878 260.836 276.681 260.905C276.646 260.929 276.613 260.929 276.567 260.929ZM251.48 171.874C251.48 171.874 266.246 217.255 269.131 217.625C272.018 217.995 291.101 212.939 291.828 209.705C292.556 206.473 277.421 164.496 276.335 163.423C275.25 162.339 252.553 169.992 251.48 171.874Z" fill="#263156"/>
<path d="M291.816 209.704L290.281 212.289L288.422 210.511L290.765 209.392L291.816 209.704Z" fill="#263156"/>
<path d="M251.479 171.874L250.035 174.217L252.692 173.767L252.415 171.966L251.479 171.874Z" fill="#263156"/>
<path d="M250.035 174.217C250.035 174.217 264.802 219.598 267.687 219.968C270.574 220.338 289.657 215.28 290.384 212.048C291.1 208.805 275.977 166.839 274.891 165.766C273.806 164.692 251.11 172.323 250.035 174.217Z" fill="white"/>
<path d="M245.502 219.38C244.451 212.903 251.09 196.914 254.981 192.019C258.871 187.124 276.06 178.859 277.573 180.474C279.766 182.807 277.7 184.873 277.7 184.873C277.7 184.873 285.227 181.363 286.612 183.373C287.998 185.381 285.481 188.013 285.481 188.013C285.481 188.013 288.113 188.51 289.117 190.772C290.122 193.035 288.368 194.04 288.368 194.04C288.368 194.04 290.376 194.294 290.63 197.179C290.883 200.066 285.355 199.939 280.713 203.829C276.072 207.719 273.901 210.099 272.551 212.868C270.923 216.205 267.402 220.027 263.95 221.469C260.509 222.889 246.253 223.963 245.502 219.38Z" fill="#FFC5C2"/>
<path d="M263.27 194.778C263.189 194.778 263.121 194.754 263.051 194.708C262.877 194.58 262.842 194.35 262.958 194.176C265.499 190.62 277.043 184.768 277.528 184.513C277.712 184.422 277.944 184.49 278.047 184.687C278.14 184.871 278.07 185.102 277.874 185.206C277.758 185.264 266.006 191.232 263.582 194.627C263.501 194.72 263.386 194.778 263.27 194.778ZM268.638 199.383C268.535 199.383 268.419 199.336 268.349 199.245C268.212 199.083 268.235 198.84 268.396 198.703C274.631 193.333 285.217 187.7 285.32 187.642C285.505 187.538 285.736 187.619 285.84 187.805C285.943 187.989 285.864 188.219 285.678 188.324C285.574 188.382 275.068 193.98 268.892 199.28C268.812 199.359 268.719 199.383 268.638 199.383ZM272.807 203.563C272.714 203.563 272.633 203.528 272.563 203.47C272.402 203.331 272.379 203.089 272.518 202.928C275.427 199.452 287.698 193.899 288.218 193.657C288.414 193.565 288.633 193.657 288.726 193.854C288.819 194.05 288.726 194.269 288.53 194.361C288.402 194.419 275.899 200.076 273.107 203.424C273.025 203.517 272.909 203.563 272.807 203.563Z" fill="#E49591"/>
<path d="M119.134 147.61L108.086 142.16L121.581 114.811C123.082 111.763 126.777 110.505 129.836 112.017C132.884 113.518 134.142 117.212 132.63 120.272L119.134 147.61ZM170.508 147.61L181.556 142.16L168.06 114.811C166.559 111.763 162.865 110.505 159.805 112.017C156.757 113.518 155.5 117.212 157.013 120.272L170.508 147.61Z" fill="#263156"/>
<path d="M199.206 149.442H90.4092C88.5159 149.442 86.9805 147.906 86.9805 146.013V138.659C86.9805 136.766 88.5159 135.23 90.4092 135.23H199.206C201.099 135.23 202.635 136.766 202.635 138.659V146.013C202.647 147.906 201.111 149.442 199.206 149.442Z" fill="#B0BEC5"/>
<path d="M197.546 149.443H92.0859L101.506 195.206C102.118 198.173 104.727 200.297 107.752 200.297H181.881C184.905 200.297 187.514 198.173 188.126 195.206L197.546 149.443Z" fill="#263156"/>
<path d="M144.822 185.784C143.194 185.784 141.866 184.456 141.866 182.827V161.205C141.866 159.577 143.194 158.25 144.822 158.25C146.45 158.25 147.777 159.577 147.777 161.205V182.827C147.777 184.467 146.45 185.784 144.822 185.784ZM165.059 185.587C163.454 185.31 162.37 183.774 162.647 182.17L166.341 160.87C166.618 159.265 168.154 158.18 169.759 158.457C171.362 158.734 172.448 160.27 172.171 161.875L168.477 183.174C168.2 184.79 166.664 185.863 165.059 185.587ZM124.573 185.587C126.177 185.31 127.262 183.774 126.985 182.17L123.291 160.87C123.014 159.265 121.479 158.18 119.874 158.457C118.269 158.734 117.184 160.27 117.461 161.875L121.155 183.174C121.433 184.79 122.968 185.863 124.573 185.587Z" fill="#B0BEC5"/>
<path d="M115.307 145.932C117.666 145.932 119.578 144.019 119.578 141.66C119.578 139.301 117.666 137.389 115.307 137.389C112.948 137.389 111.035 139.301 111.035 141.66C111.035 144.019 112.948 145.932 115.307 145.932Z" fill="white"/>
<path d="M174.321 145.575C176.482 145.575 178.235 143.823 178.235 141.662C178.235 139.5 176.482 137.748 174.321 137.748C172.159 137.748 170.406 139.5 170.406 141.662C170.406 143.823 172.159 145.575 174.321 145.575Z" fill="white"/>
<path d="M83.1587 399.705C83.2165 399.797 83.2626 399.878 83.2973 399.971H71.7064C70.0094 398.447 68.4509 396.83 67.1348 395.18C62.8402 389.88 60.8661 384.373 63.6137 381.072C67.1348 376.846 74.6619 386.439 80.3303 395.18C81.3347 396.749 82.2929 398.273 83.1587 399.705Z" fill="#68B19C"/>
<path d="M83.2362 399.962C83.2016 399.869 83.1669 399.788 83.1555 399.695C82.636 398.264 82.1048 396.752 81.5392 395.17C74.0699 373.836 63.0447 339.097 69.8561 337.263C77.5909 335.184 83.6634 365.42 85.9031 378.488C86.5033 382.056 86.8381 384.341 86.8381 384.341H86.4456L88.4775 395.17L89.3665 399.962H83.2362Z" fill="#68B19C"/>
<path d="M95.68 387.266C95.68 387.277 95.6685 387.301 95.6685 387.322C95.1836 390.047 94.6756 392.692 94.1676 395.186C93.8559 396.859 93.5212 398.464 93.2209 399.976H87.3794C87.264 398.406 87.137 396.813 87.0099 395.186C86.5944 389.758 86.1788 384.067 85.9133 378.504C84.9781 358.208 86.0865 339.679 96.3958 342.45C102.249 344.007 99.2127 367.72 95.68 387.266Z" fill="#68B19C"/>
<path d="M101.005 395.181C100.035 396.844 99.0768 398.438 98.1532 399.973H92.2539C92.6118 398.461 93.0159 396.844 93.4545 395.181C94.1126 392.63 94.8514 389.964 95.6711 387.319C95.6711 387.286 95.6827 387.274 95.6827 387.262C99.2153 375.821 104.11 364.762 109.698 365.408C116.382 366.181 108.59 382.137 101.005 395.181Z" fill="#68B19C"/>
<path d="M104.76 217.12C114.132 217.12 121.73 209.522 121.73 200.15C121.73 190.777 114.132 183.179 104.76 183.179C95.387 183.179 87.7891 190.777 87.7891 200.15C87.7891 209.522 95.387 217.12 104.76 217.12Z" fill="#FF4A4A"/>
<path d="M104.771 208.275C103.386 208.275 102.324 207.871 101.585 207.051C100.846 206.232 100.477 205.135 100.477 203.761V196.628C100.477 195.195 100.834 194.076 101.55 193.245C102.266 192.424 103.34 192.009 104.771 192.009C106.191 192.009 107.253 192.424 107.981 193.245C108.696 194.076 109.054 195.195 109.054 196.616V203.75C109.054 205.113 108.685 206.197 107.934 207.028C107.184 207.871 106.133 208.275 104.771 208.275ZM104.771 205.39C105.418 205.39 105.741 204.823 105.741 203.68V196.719C105.741 196.57 105.741 196.442 105.741 196.349C105.741 196.258 105.729 196.13 105.718 195.969C105.706 195.807 105.672 195.669 105.625 195.565C105.579 195.46 105.521 195.357 105.464 195.241C105.395 195.125 105.302 195.046 105.187 194.999C105.071 194.941 104.933 194.918 104.783 194.918C104.667 194.918 104.552 194.93 104.459 194.964C104.367 194.999 104.275 195.046 104.217 195.115C104.148 195.183 104.09 195.253 104.044 195.311C103.998 195.369 103.963 195.46 103.928 195.576C103.905 195.692 103.882 195.784 103.859 195.853C103.848 195.911 103.836 196.026 103.824 196.165C103.813 196.316 103.813 196.407 103.813 196.442C103.813 196.488 103.813 196.57 103.813 196.707V203.669C103.801 204.823 104.125 205.39 104.771 205.39Z" fill="white"/>
<path d="M264.44 82.2029C274.13 82.2029 281.987 74.3466 281.987 64.6552C281.987 54.9637 274.13 47.1074 264.44 47.1074C254.748 47.1074 246.891 54.9637 246.891 64.6552C246.891 74.3466 254.748 82.2029 264.44 82.2029Z" fill="#FF4A4A"/>
<path d="M257.203 57.4183C257.987 56.6332 259.269 56.6332 260.053 57.4183L271.668 69.0322C272.452 69.8172 272.452 71.0985 271.668 71.8837C270.882 72.6687 269.601 72.6687 268.816 71.8837L257.203 60.2698C256.417 59.4848 256.417 58.2033 257.203 57.4183Z" fill="white"/>
<path d="M271.68 57.4184C270.894 56.6333 269.614 56.6333 268.828 57.4184L257.213 69.0323C256.429 69.8173 256.429 71.0986 257.213 71.8838C257.999 72.6688 259.281 72.6688 260.065 71.8838L271.68 60.2699C272.464 59.4849 272.464 58.2034 271.68 57.4184Z" fill="white"/>
<path d="M181.099 250.437H110.782C108.91 250.437 107.398 248.499 107.398 246.1V233.262C107.398 230.862 108.91 228.925 110.782 228.925H181.099C182.971 228.925 184.482 230.862 184.482 233.262V246.1C184.482 248.499 182.959 250.437 181.099 250.437Z" fill="#FF4A4A"/>
<path d="M123.564 234.441V244.485H121.116L117.018 238.286V244.485H114.57V234.441H117.018L121.116 240.664V234.441H123.564ZM130.814 244.589C127.962 244.589 125.642 242.454 125.642 239.441C125.642 236.416 127.962 234.303 130.814 234.303C133.677 234.303 135.951 236.416 135.951 239.441C135.951 242.454 133.654 244.589 130.814 244.589ZM130.814 242.349C132.418 242.349 133.457 241.195 133.457 239.429C133.457 237.64 132.407 236.507 130.814 236.507C129.186 236.507 128.147 237.64 128.147 239.429C128.147 241.195 129.174 242.349 130.814 242.349ZM141.781 234.441H144.229V244.485H141.781V234.441ZM146.167 234.441H153.938V236.404H151.271V244.497H148.824V236.404H146.156V234.441H146.167ZM162.042 236.404H158.336V238.436H161.614V240.329H158.336V242.535H162.042V244.497H155.888V234.453H162.042V236.404ZM164.35 234.441H167.237L170.054 241.402L172.847 234.441H175.722V244.485H173.275V238.459L171.023 244.485H169.05L166.786 238.447V244.485H164.339V234.441H164.35Z" fill="white"/>
<path d="M464 395.179H26.043V399.97H464V395.179Z" fill="#0E145A"/>
<path d="M464 395.179H26.043V399.97H464V395.179Z" fill="black" fill-opacity="0.2"/>
<path d="M310.816 142.54C310.816 142.54 314.385 139.042 318.622 142.101L310.816 142.54Z" fill="white"/>
<path d="M63.8779 41.2458C62.7811 41.2458 61.7999 40.4492 61.6152 39.3293L55.508 2.67519C55.3003 1.42837 56.143 0.239288 57.3898 0.0314837C58.6367 -0.176319 59.8258 0.666435 60.0336 1.91326L66.1406 38.5674C66.3485 39.8142 65.5057 41.0033 64.259 41.2111C64.1319 41.2342 64.0049 41.2458 63.8779 41.2458Z" fill="#B0BEC5"/>
<path d="M45.0549 48.8737C44.5123 48.8737 43.9813 48.6889 43.5425 48.2964L22.1504 29.4671C21.2037 28.6244 21.1113 27.1814 21.9426 26.2347C22.7853 25.288 24.2285 25.1956 25.175 26.0269L46.5557 44.8562C47.5024 45.6989 47.5948 47.142 46.7635 48.0887C46.3133 48.6082 45.6898 48.8737 45.0549 48.8737Z" fill="#B0BEC5"/>
<path d="M2.28835 66.1841C1.13389 66.1841 0.141053 65.3183 0.0140624 64.1522C-0.124473 62.8939 0.776002 61.7625 2.03437 61.6124L37.6725 57.5371C38.931 57.387 40.0623 58.2991 40.2123 59.5575C40.3509 60.8158 39.4505 61.9472 38.1921 62.0973L2.55387 66.1725C2.46152 66.1841 2.36915 66.1841 2.28835 66.1841Z" fill="#B0BEC5"/>
<defs>
<radialGradient id="paint0_radial_125_4106" cx="0" cy="0" r="1" gradientUnits="userSpaceOnUse" gradientTransform="translate(220.659 161.579) rotate(90) scale(145.327 193.239)">
<stop stop-color="#D6E0FA"/>
<stop offset="1" stop-color="white" stop-opacity="0"/>
</radialGradient>
</defs>
</svg>
