<svg width="22" height="22" viewBox="0 0 22 22" fill="none" xmlns="http://www.w3.org/2000/svg">
<path d="M9.96501 18.5H2.5C2.10218 18.5 1.72065 18.342 1.43934 18.0607C1.15804 17.7794 1 17.3978 1 17V6.5H17.5V9.66001C17.5 9.79261 17.5527 9.91979 17.6465 10.0136C17.7402 10.1073 17.8674 10.16 18 10.16C18.1326 10.16 18.2598 10.1073 18.3536 10.0136C18.4473 9.91979 18.5 9.79261 18.5 9.66001V4C18.4992 3.3372 18.2356 2.70178 17.7669 2.23311C17.2982 1.76444 16.6628 1.5008 16 1.5H15C15 1.10218 14.842 0.720645 14.5607 0.43934C14.2794 0.158035 13.8978 0 13.5 0C13.1022 0 12.7207 0.158035 12.4393 0.43934C12.158 0.720645 12 1.10218 12 1.5H6.5C6.5 1.10218 6.34197 0.720645 6.06066 0.43934C5.77936 0.158035 5.39783 0 5 0C4.60218 0 4.22065 0.158035 3.93934 0.43934C3.65804 0.720645 3.5 1.10218 3.5 1.5H2.5C1.8372 1.5008 1.20178 1.76444 0.73311 2.23311C0.264441 2.70178 0.000793929 3.3372 0 4V17C0.000793929 17.6628 0.264441 18.2982 0.73311 18.7669C1.20178 19.2356 1.8372 19.4992 2.5 19.5H9.96501C10.0976 19.5 10.2248 19.4473 10.3186 19.3536C10.4123 19.2598 10.465 19.1326 10.465 19C10.465 18.8674 10.4123 18.7402 10.3186 18.6465C10.2248 18.5527 10.0976 18.5 9.96501 18.5ZM13 1.5C13 1.36739 13.0527 1.24022 13.1465 1.14645C13.2402 1.05268 13.3674 1 13.5 1C13.6326 1 13.7598 1.05268 13.8536 1.14645C13.9473 1.24022 14 1.36739 14 1.5V2.5C14 2.63261 13.9473 2.75979 13.8536 2.85356C13.7598 2.94732 13.6326 3 13.5 3C13.3674 3 13.2402 2.94732 13.1465 2.85356C13.0527 2.75979 13 2.63261 13 2.5V1.5ZM4.5 1.5C4.5 1.36739 4.55268 1.24022 4.64645 1.14645C4.74022 1.05268 4.8674 1 5 1C5.13261 1 5.25979 1.05268 5.35356 1.14645C5.44733 1.24022 5.5 1.36739 5.5 1.5V2.5C5.5 2.63261 5.44733 2.75979 5.35356 2.85356C5.25979 2.94732 5.13261 3 5 3C4.8674 3 4.74022 2.94732 4.64645 2.85356C4.55268 2.75979 4.5 2.63261 4.5 2.5V1.5ZM1 4C1 3.60218 1.15804 3.22065 1.43934 2.93934C1.72065 2.65804 2.10218 2.5 2.5 2.5H3.5C3.5 2.89783 3.65804 3.27936 3.93934 3.56066C4.22065 3.84197 4.60218 4 5 4C5.39783 4 5.77936 3.84197 6.06066 3.56066C6.34197 3.27936 6.5 2.89783 6.5 2.5H12C12 2.89783 12.158 3.27936 12.4393 3.56066C12.7207 3.84197 13.1022 4 13.5 4C13.8978 4 14.2794 3.84197 14.5607 3.56066C14.842 3.27936 15 2.89783 15 2.5H16C16.3978 2.5 16.7794 2.65804 17.0607 2.93934C17.342 3.22065 17.5 3.60218 17.5 4V5.5H1V4Z" fill="#979797"/>
<path d="M6 8.99994C6 8.73472 5.89465 8.48037 5.70711 8.29283C5.51957 8.1053 5.26522 7.99994 5 7.99994H3.5C3.23478 7.99994 2.98043 8.1053 2.79289 8.29283C2.60536 8.48037 2.5 8.73472 2.5 8.99994V10.4999C2.5 10.7652 2.60536 11.0195 2.79289 11.207C2.98043 11.3946 3.23478 11.4999 3.5 11.4999H5C5.26522 11.4999 5.51957 11.3946 5.70711 11.207C5.89465 11.0195 6 10.7652 6 10.4999V8.99994ZM3.5 10.4999V8.99994H5V10.4999H3.5ZM11 8.99994C11 8.73472 10.8946 8.48037 10.7071 8.29283C10.5196 8.1053 10.2652 7.99994 10 7.99994H8.5C8.23479 7.99994 7.98043 8.1053 7.7929 8.29283C7.60536 8.48037 7.5 8.73472 7.5 8.99994V10.4999C7.5 10.7652 7.60536 11.0195 7.7929 11.207C7.98043 11.3946 8.23479 11.4999 8.5 11.4999H10C10.2652 11.4999 10.5196 11.3946 10.7071 11.207C10.8946 11.0195 11 10.7652 11 10.4999V8.99994ZM8.5 10.4999V8.99994H10V10.4999H8.5ZM15.5 10.0699C15.6326 10.0699 15.7598 10.0173 15.8536 9.92349C15.9473 9.82973 16 9.70255 16 9.56994V8.99994C16 8.73472 15.8947 8.48037 15.7071 8.29283C15.5196 8.1053 15.2652 7.99994 15 7.99994H13.5C13.2348 7.99994 12.9804 8.1053 12.7929 8.29283C12.6054 8.48037 12.5 8.73472 12.5 8.99994V10.4399C12.5 10.5725 12.5527 10.6997 12.6465 10.7935C12.7402 10.8873 12.8674 10.9399 13 10.9399C13.1326 10.9399 13.2598 10.8873 13.3536 10.7935C13.4473 10.6997 13.5 10.5725 13.5 10.4399V8.99994H15V9.56994C15 9.70255 15.0527 9.82973 15.1465 9.92349C15.2402 10.0173 15.3674 10.0699 15.5 10.0699ZM5 12.9999H3.5C3.23478 12.9999 2.98043 13.1053 2.79289 13.2928C2.60536 13.4804 2.5 13.7347 2.5 13.9999V15.4999C2.5 15.7652 2.60536 16.0195 2.79289 16.2071C2.98043 16.3946 3.23478 16.4999 3.5 16.4999H5C5.26522 16.4999 5.51957 16.3946 5.70711 16.2071C5.89465 16.0195 6 15.7652 6 15.4999V13.9999C6 13.7347 5.89465 13.4804 5.70711 13.2928C5.51957 13.1053 5.26522 12.9999 5 12.9999ZM3.5 15.4999V13.9999H5V15.4999H3.5ZM10.345 13.0654C10.2352 13.0219 10.1181 12.9996 10 12.9999H8.5C8.23479 12.9999 7.98043 13.1053 7.7929 13.2928C7.60536 13.4804 7.5 13.7347 7.5 13.9999V15.4999C7.5 15.7652 7.60536 16.0195 7.7929 16.2071C7.98043 16.3946 8.23479 16.4999 8.5 16.4999H9.52001C9.65261 16.4999 9.77979 16.4473 9.87356 16.3535C9.96733 16.2597 10.02 16.1326 10.02 15.9999C10.02 15.8673 9.96733 15.7402 9.87356 15.6464C9.77979 15.5526 9.65261 15.4999 9.52001 15.4999H8.5V13.9999L9.97501 13.9944C10.098 14.0423 10.2348 14.0397 10.3558 13.987C10.4768 13.9344 10.5721 13.8361 10.621 13.7135C10.6698 13.5909 10.6682 13.454 10.6165 13.3326C10.5648 13.2112 10.4672 13.1152 10.345 13.0654ZM16.5 10.9999C15.4122 10.9999 14.3488 11.3225 13.4444 11.9269C12.5399 12.5312 11.835 13.3902 11.4187 14.3952C11.0024 15.4002 10.8935 16.506 11.1057 17.5729C11.3179 18.6398 11.8417 19.6198 12.6109 20.389C13.3801 21.1582 14.3601 21.682 15.427 21.8943C16.4939 22.1065 17.5998 21.9976 18.6048 21.5813C19.6098 21.165 20.4687 20.4601 21.0731 19.5556C21.6774 18.6511 22 17.5877 22 16.4999C21.9983 15.0418 21.4183 13.6438 20.3872 12.6128C19.3561 11.5817 17.9582 11.0017 16.5 10.9999ZM16.5 20.9999C15.61 20.9999 14.74 20.736 13.9999 20.2416C13.2599 19.7471 12.6831 19.0443 12.3425 18.222C12.002 17.3998 11.9128 16.495 12.0865 15.622C12.2601 14.7491 12.6887 13.9473 13.318 13.318C13.9474 12.6886 14.7492 12.26 15.6221 12.0864C16.495 11.9128 17.3998 12.0019 18.2221 12.3425C19.0444 12.6831 19.7472 13.2599 20.2416 13.9999C20.7361 14.7399 21 15.6099 21 16.4999C20.9987 17.693 20.5242 18.8368 19.6805 19.6805C18.8369 20.5241 17.6931 20.9986 16.5 20.9999Z" fill="#979797"/>
<path d="M17 16.2929V13.9999C17 13.8673 16.9473 13.7402 16.8536 13.6464C16.7598 13.5526 16.6326 13.4999 16.5 13.4999C16.3674 13.4999 16.2402 13.5526 16.1464 13.6464C16.0527 13.7402 16 13.8673 16 13.9999V16.4999C16 16.6325 16.0527 16.7597 16.1465 16.8534L17.1465 17.8534C17.2408 17.9445 17.3671 17.9949 17.4982 17.9938C17.6293 17.9926 17.7547 17.9401 17.8474 17.8474C17.9401 17.7546 17.9927 17.6292 17.9938 17.4981C17.995 17.367 17.9446 17.2407 17.8535 17.1464L17 16.2929Z" fill="#979797"/>
</svg>
