<svg width="59" height="68" viewBox="0 0 59 68" fill="none" xmlns="http://www.w3.org/2000/svg">
<path d="M0.00641424 2.23404L4.38636 58.2676C4.41853 58.679 4.57275 59.0713 4.82927 59.3945C5.08579 59.7177 5.43293 59.9569 5.82624 60.0816L28.8736 67.3888C29.2812 67.5179 29.7188 67.5179 30.1264 67.3888L53.1737 60.0816C53.5671 59.9569 53.9142 59.7177 54.1707 59.3945C54.4272 59.0713 54.5814 58.679 54.6136 58.2676L58.9936 2.23404C59.0878 1.02935 58.1357 0 56.9274 0H2.07273C0.864466 0 -0.0876294 1.02935 0.00641424 2.23404ZM47.7615 19.6194H19.2165L20.078 27.5634H47.1406L45.3703 50.2105L29.5001 55.242L13.6298 50.2105L12.705 38.3787H21.0349V44.1823L29.7227 46.514L38.3585 44.1823L39.0285 34.933H12.4356L10.67 12.3452H48.3299L47.7615 19.6194Z" fill="#FC490B"/>
</svg>
