<svg width="395" height="383" viewBox="0 0 395 383" fill="none" xmlns="http://www.w3.org/2000/svg">
<path d="M197.468 383C306.526 383 394.935 331.957 394.935 268.992C394.935 206.026 306.526 154.983 197.468 154.983C88.4093 154.983 3.05176e-05 206.026 3.05176e-05 268.992C3.05176e-05 331.957 88.4093 383 197.468 383Z" fill="#E0E0E0" fill-opacity="0.3"/>
<path d="M310.873 308.551C297.924 301.075 297.924 288.955 310.873 281.48C323.821 274.004 344.816 274.004 357.765 281.48C370.714 288.955 370.714 301.075 357.765 308.551C344.816 316.027 323.821 316.027 310.873 308.551Z" fill="#E0E0E0"/>
<path d="M47.5042 309.59L13.4433 289.928C11.5241 288.821 11.5241 287.019 13.4433 285.913L211.565 171.528C212.641 170.982 213.832 170.698 215.039 170.698C216.246 170.698 217.436 170.982 218.513 171.528L252.582 191.19C254.501 192.296 254.501 194.098 252.582 195.204L54.4605 309.59C53.3823 310.136 52.1908 310.42 50.9824 310.42C49.7739 310.42 48.5824 310.136 47.5042 309.59Z" fill="#E0E0E0"/>
<path d="M169.936 274.54L199.219 257.61C202.237 255.867 203.745 253.587 203.745 251.299C203.745 249.011 203.745 247.226 203.745 247.226L173.372 230.095C172.524 229.546 171.817 228.804 171.31 227.93C170.803 227.056 170.51 226.075 170.455 225.066V188.952L119.331 218.504V254.601C119.39 255.609 119.684 256.589 120.191 257.463C120.697 258.336 121.402 259.078 122.247 259.63L148.095 274.515C154.112 278.026 163.901 278.026 169.936 274.54Z" fill="#B0BEC5"/>
<g opacity="0.6">
<path d="M169.936 274.54L199.219 257.61C202.237 255.867 203.745 253.587 203.745 251.299C203.745 249.011 203.745 247.226 203.745 247.226L173.372 230.095C172.524 229.546 171.817 228.804 171.31 227.93C170.803 227.056 170.51 226.075 170.455 225.066V188.952L119.331 218.504V254.601C119.39 255.609 119.684 256.589 120.191 257.463C120.697 258.336 121.402 259.078 122.247 259.63L148.095 274.515C154.112 278.026 163.901 278.026 169.936 274.54Z" fill="black"/>
</g>
<path opacity="0.3" d="M131.592 260.996V265.052L122.222 259.647C121.377 259.096 120.673 258.353 120.167 257.48C119.662 256.606 119.37 255.626 119.314 254.618V218.504L129.053 212.88C129.254 215.352 129.472 217.909 129.681 220.423L122.834 224.362V252.565C122.888 253.574 123.181 254.555 123.688 255.429C124.195 256.304 124.902 257.045 125.75 257.593L131.592 260.996Z" fill="black"/>
<path d="M122.834 252.573C122.892 253.581 123.186 254.562 123.692 255.435C124.199 256.309 124.904 257.051 125.751 257.602L148.061 270.458C154.096 273.936 163.885 273.945 169.927 270.458L199.261 253.528C205.304 250.042 205.304 244.393 199.261 240.906L176.934 228.05C176.09 227.498 175.386 226.755 174.881 225.882C174.376 225.008 174.083 224.029 174.026 223.021V194.81L122.901 224.362L122.834 252.573Z" fill="#B0BEC5"/>
<path opacity="0.3" d="M122.834 252.573C122.892 253.581 123.186 254.562 123.692 255.435C124.199 256.309 124.904 257.051 125.751 257.602L148.061 270.458C154.096 273.936 163.885 273.945 169.927 270.458L199.261 253.528C205.304 250.042 205.304 244.393 199.261 240.906L176.934 228.05C176.09 227.498 175.386 226.755 174.881 225.882C174.376 225.008 174.083 224.029 174.026 223.021V194.81L122.901 224.362L122.834 252.573Z" fill="black"/>
<path opacity="0.5" d="M182.843 231.494L176.901 228.067C176.056 227.515 175.353 226.772 174.848 225.898C174.343 225.025 174.05 224.045 173.992 223.038V194.81L122.867 224.362V252.573C122.925 253.581 123.219 254.562 123.726 255.435C124.232 256.309 124.938 257.051 125.784 257.602L131.651 260.954L182.843 231.494Z" fill="black"/>
<path d="M203.753 247.234V251.307C203.753 253.595 202.236 255.867 199.228 257.618L169.894 274.54C166.684 276.253 163.098 277.143 159.459 277.13V273.073C163.098 273.087 166.684 272.197 169.894 270.483L199.228 253.545C202.236 251.81 203.753 249.522 203.753 247.234Z" fill="#B0BEC5"/>
<path opacity="0.5" d="M203.753 247.234V251.307C203.753 253.595 202.236 255.867 199.228 257.618L169.894 274.54C166.684 276.253 163.098 277.143 159.459 277.13V273.073C163.098 273.087 166.684 272.197 169.894 270.483L199.228 253.545C202.236 251.81 203.753 249.522 203.753 247.234Z" fill="black"/>
<path d="M40.6988 287.631C41.804 288.165 43.0192 288.432 44.2464 288.41C45.4736 288.388 46.6785 288.078 47.7641 287.505L245.559 173.313C246.619 172.621 247.502 171.689 248.135 170.593C248.769 169.496 249.135 168.266 249.204 167.002V6.98932C249.166 5.75928 248.839 4.5556 248.247 3.47636C247.656 2.39712 246.818 1.47286 245.802 0.77891C244.698 0.244492 243.483 -0.0218939 242.257 0.00140708C241.031 0.0247081 239.827 0.337038 238.745 0.913007L40.9502 115.139C39.8933 115.835 39.016 116.771 38.3897 117.871C37.7634 118.971 37.4059 120.203 37.3463 121.467V281.454C37.3837 282.674 37.7065 283.868 38.2886 284.941C38.8708 286.014 39.6963 286.935 40.6988 287.631Z" fill="#B0BEC5"/>
<path d="M47.7892 287.497L245.584 173.304C246.646 172.614 247.529 171.682 248.163 170.586C248.797 169.489 249.162 168.258 249.229 166.993V6.98927C249.229 4.6677 247.595 3.72064 245.584 4.88561L47.7892 119.078C46.7281 119.77 45.8451 120.701 45.2116 121.798C44.5782 122.894 44.2122 124.125 44.1434 125.389V285.393C44.1434 287.715 45.7777 288.662 47.7892 287.497Z" fill="#B0BEC5"/>
<path opacity="0.5" d="M47.7892 287.497L245.584 173.304C246.646 172.614 247.529 171.682 248.163 170.586C248.797 169.489 249.162 168.258 249.229 166.993V6.98927C249.229 4.6677 247.595 3.72064 245.584 4.88561L47.7892 119.078C46.7281 119.77 45.8451 120.701 45.2116 121.798C44.5782 122.894 44.2122 124.125 44.1434 125.389V285.393C44.1434 287.715 45.7777 288.662 47.7892 287.497Z" fill="black"/>
<path d="M47.2529 291.654C46.2157 292.107 45.0926 292.329 43.9611 292.306C42.8297 292.283 41.7166 292.015 40.6988 291.52C39.6941 290.822 38.8673 289.898 38.285 288.822C37.7027 287.747 37.3812 286.549 37.3464 285.326V270.76L44.177 274.716V289.282C44.1351 291.403 45.4844 292.367 47.2529 291.654Z" fill="#B0BEC5"/>
<path opacity="0.5" d="M47.2529 291.654C46.2157 292.107 45.0926 292.329 43.9611 292.306C42.8297 292.283 41.7166 292.015 40.6988 291.52C39.6941 290.822 38.8673 289.898 38.285 288.822C37.7027 287.747 37.3812 286.549 37.3464 285.326V270.76L44.177 274.716V289.282C44.1351 291.403 45.4844 292.367 47.2529 291.654Z" fill="black"/>
<path d="M44.1351 274.716V289.282C44.1351 291.604 45.8113 292.543 47.7809 291.386L245.575 177.193C246.632 176.505 247.512 175.578 248.145 174.488C248.778 173.398 249.147 172.174 249.221 170.916V156.282L44.1351 274.716Z" fill="#B0BEC5"/>
<path opacity="0.3" d="M44.1434 274.682V289.282C44.1434 291.604 45.8196 292.543 47.7892 291.386L245.584 177.193C246.638 176.504 247.517 175.577 248.148 174.487C248.78 173.396 249.147 172.173 249.221 170.916V156.282L44.1434 274.682Z" fill="black"/>
<path d="M50.9741 256.403V127.661C51.0131 126.902 51.2308 126.164 51.6095 125.505C51.9882 124.847 52.5171 124.288 53.1532 123.872L240.17 15.865C241.376 15.1693 242.357 15.7309 242.357 17.1221V145.932C242.316 146.691 242.097 147.429 241.717 148.088C241.337 148.746 240.807 149.305 240.17 149.72L53.1616 257.702C51.9547 258.398 50.9741 257.828 50.9741 256.403Z" fill="#B0BEC5"/>
<path d="M50.9741 256.403V127.661C51.0131 126.902 51.2308 126.164 51.6095 125.505C51.9882 124.847 52.5171 124.288 53.1532 123.872L240.17 15.865C241.376 15.1693 242.357 15.7309 242.357 17.1221V145.932C242.316 146.691 242.097 147.429 241.717 148.088C241.337 148.746 240.807 149.305 240.17 149.72L53.1616 257.702C51.9547 258.398 50.9741 257.828 50.9741 256.403Z" fill="#263238"/>
<path d="M146.678 220.138C145.683 220.785 144.854 221.659 144.26 222.687C143.666 223.715 143.323 224.869 143.259 226.055C143.259 228.234 144.792 229.123 146.678 228.033C147.675 227.385 148.504 226.51 149.098 225.48C149.693 224.45 150.035 223.295 150.098 222.108C150.098 219.928 148.564 219.048 146.678 220.138Z" fill="#B0BEC5"/>
<path opacity="0.7" d="M45.2162 121.786C44.5667 122.877 44.1954 124.112 44.1351 125.381V274.716L37.3464 270.76V121.467C37.3903 120.194 37.7597 118.953 38.4192 117.863L45.2162 121.786Z" fill="black"/>
<path opacity="0.3" d="M249.188 6.38589C248.928 4.50852 247.411 3.87156 245.575 4.88567L47.7808 119.078C46.7084 119.749 45.8232 120.68 45.2078 121.786L38.3688 117.838C38.9884 116.733 39.8761 115.802 40.9502 115.131L238.745 0.946547C239.829 0.370498 241.034 0.058153 242.261 0.034854C243.489 0.011555 244.705 0.277958 245.81 0.812449C246.739 1.44552 247.522 2.27073 248.104 3.23227C248.687 4.1938 249.056 5.26925 249.188 6.38589Z" fill="black"/>
<path d="M259.857 26.0814C259.563 25.934 259.235 25.8693 258.907 25.8944C258.579 25.9195 258.264 26.0334 257.996 26.2239L71.3654 134.039C70.629 134.526 70.0176 135.179 69.5808 135.947C69.144 136.714 68.894 137.574 68.851 138.455V266.41C68.8249 266.842 68.9107 267.273 69.1001 267.663C69.2895 268.052 69.5761 268.385 69.9322 268.631C70.3429 268.857 72.5387 270.131 73.1925 270.483C73.4237 270.601 73.6822 270.655 73.9413 270.641C74.2005 270.626 74.4511 270.543 74.6675 270.4L261.256 162.585C261.993 162.098 262.604 161.444 263.041 160.677C263.478 159.909 263.728 159.05 263.771 158.168V29.5512C263.808 29.2262 263.754 28.8972 263.615 28.6011C263.476 28.305 263.257 28.0535 262.983 27.875C262.564 27.5984 260.326 26.358 259.857 26.0814Z" fill="#B0BEC5"/>
<path d="M74.6257 135.849L261.265 28.0761C262.673 27.238 263.779 27.9253 263.779 29.5512V158.168C263.736 159.05 263.486 159.909 263.049 160.677C262.613 161.444 262.001 162.098 261.265 162.585L74.6257 270.4C73.2177 271.238 72.1114 269.888 72.1114 268.262V140.266C72.1556 139.384 72.4062 138.525 72.8429 137.758C73.2796 136.991 73.8902 136.337 74.6257 135.849Z" fill="#FAFAFA"/>
<path d="M262.405 28.5624C262.899 28.5624 262.975 29.1826 262.975 29.5513V158.168C262.929 158.906 262.713 159.624 262.342 160.264C261.971 160.905 261.456 161.449 260.837 161.856L74.2234 269.67C74.0982 269.752 73.9535 269.798 73.8044 269.805C73.335 269.805 72.9663 269.084 72.9663 268.262V140.266C73.0067 139.528 73.2168 138.809 73.5802 138.165C73.9435 137.521 74.4505 136.969 75.0615 136.553L261.684 28.797C261.9 28.6577 262.148 28.5768 262.405 28.5624ZM262.405 27.7242C262.001 27.7414 261.608 27.8627 261.265 28.0762L74.6257 135.849C73.8902 136.337 73.2796 136.991 72.8429 137.758C72.4062 138.525 72.1556 139.384 72.1114 140.266V268.262C72.1114 269.553 72.8322 270.643 73.7876 270.643C74.0835 270.637 74.3727 270.553 74.6257 270.4L261.257 162.585C261.993 162.098 262.604 161.444 263.041 160.677C263.478 159.909 263.728 159.05 263.771 158.168V29.5513C263.771 28.3947 263.201 27.7242 262.363 27.7242H262.405Z" fill="#E0E0E0"/>
<path d="M69.8819 268.631C70.1585 268.774 72.1448 269.905 73.0165 270.408C72.7035 270.148 72.4556 269.819 72.2926 269.447C72.1296 269.074 72.056 268.668 72.0778 268.262V148.622L68.8091 146.711V266.41C68.7821 266.841 68.8666 267.272 69.0545 267.661C69.2424 268.05 69.5274 268.384 69.8819 268.631Z" fill="#F0F0F0"/>
<path d="M263.813 29.5261C263.813 27.9169 262.665 27.2632 261.298 28.0762L74.6257 135.849C73.8902 136.337 73.2796 136.991 72.8429 137.758C72.4062 138.525 72.1556 139.384 72.1114 140.266V148.647L263.813 37.9072V29.5261Z" fill="#B0BEC5"/>
<g opacity="0.4">
<path d="M261.265 28.0762L74.6257 135.841C73.8767 136.313 73.2596 136.968 72.8322 137.743L69.5887 135.857C70.0154 135.109 70.6272 134.483 71.3655 134.039L257.996 26.2239C258.263 26.0322 258.578 25.9168 258.906 25.8902C259.233 25.8636 259.562 25.9268 259.857 26.0731C260.309 26.358 262.43 27.5565 262.975 27.8499C262.693 27.7454 262.39 27.7114 262.092 27.7508C261.794 27.7902 261.51 27.9019 261.265 28.0762Z" fill="white"/>
</g>
<path opacity="0.15" d="M68.8091 146.719V138.414C68.8436 137.509 69.1121 136.628 69.5886 135.857L72.8405 137.735C72.3708 138.492 72.1078 139.359 72.0778 140.249V148.63L68.8091 146.719Z" fill="black"/>
<path d="M224.455 126.01L112.676 190.544C112.132 190.897 111.68 191.373 111.355 191.934C111.03 192.494 110.842 193.124 110.807 193.771V225.82C110.842 226.467 111.03 227.097 111.355 227.658C111.68 228.218 112.132 228.694 112.676 229.047L115.936 230.924C116.516 231.218 117.156 231.37 117.805 231.37C118.454 231.37 119.095 231.218 119.674 230.924L231.436 166.39C231.98 166.035 232.433 165.558 232.757 164.996C233.082 164.433 233.27 163.803 233.305 163.155V131.097C233.27 130.45 233.082 129.82 232.757 129.26C232.433 128.699 231.98 128.223 231.436 127.87L228.168 125.993C227.591 125.704 226.954 125.556 226.309 125.559C225.664 125.562 225.029 125.716 224.455 126.01Z" fill="#B0BEC5"/>
<path opacity="0.5" d="M233.305 130.812C233.171 129.848 232.392 129.496 231.453 130.041L119.674 194.576C119.123 194.918 118.67 195.397 118.358 195.967L111.36 191.927C111.674 191.367 112.123 190.894 112.667 190.553L224.455 126.018C225.033 125.724 225.672 125.571 226.32 125.571C226.968 125.571 227.607 125.724 228.185 126.018L231.453 127.895C231.951 128.222 232.374 128.651 232.694 129.154C233.013 129.657 233.222 130.222 233.305 130.812Z" fill="white"/>
<path d="M119.356 231.084C118.808 231.299 118.222 231.397 117.634 231.371C117.046 231.345 116.471 231.196 115.945 230.933L112.676 229.055C112.133 228.702 111.681 228.225 111.357 227.665C111.032 227.104 110.844 226.475 110.807 225.829V193.779C110.832 193.125 111.022 192.488 111.36 191.927L118.358 195.967C118.018 196.52 117.828 197.153 117.805 197.802V229.86C117.805 230.924 118.476 231.419 119.356 231.084Z" fill="#263238"/>
<path d="M119.674 194.576L231.453 130.041C232.484 129.446 233.322 129.924 233.322 131.114V163.171C233.287 163.82 233.099 164.45 232.774 165.012C232.45 165.574 231.997 166.052 231.453 166.407L119.691 230.941C118.66 231.536 117.822 231.05 117.822 229.86V197.811C117.856 197.164 118.041 196.534 118.362 195.972C118.684 195.41 119.134 194.932 119.674 194.576Z" fill="#B0BEC5"/>
<path d="M194.819 143.124L112.684 190.553C112.14 190.894 111.69 191.367 111.377 191.927L118.375 195.967C118.686 195.397 119.14 194.918 119.691 194.576L201.826 147.155L194.819 143.124Z" fill="#455A64"/>
<path d="M201.809 147.155L119.674 194.576C119.13 194.93 118.678 195.408 118.353 195.97C118.028 196.532 117.841 197.163 117.805 197.811V229.852C117.805 231.042 118.643 231.528 119.674 230.933L201.809 183.512V147.155Z" fill="#37474F"/>
<path d="M138.615 190.67L180.999 166.206C182.75 165.191 184.175 165.912 184.175 167.815C184.097 168.883 183.768 169.918 183.214 170.836C182.661 171.753 181.899 172.527 180.99 173.095L138.615 197.568C136.864 198.582 135.431 197.861 135.431 195.958C135.51 194.889 135.839 193.853 136.392 192.934C136.946 192.016 137.707 191.24 138.615 190.67Z" fill="#B0BEC5"/>
<path d="M147.298 198.774C147.306 198.766 147.316 198.758 147.327 198.754C147.337 198.749 147.349 198.746 147.361 198.746C147.373 198.746 147.385 198.749 147.396 198.754C147.406 198.758 147.416 198.766 147.424 198.774C147.461 198.831 147.479 198.899 147.474 198.967V203.736C147.475 204.197 147.436 204.657 147.357 205.111C147.288 205.525 147.17 205.93 147.005 206.317C146.855 206.672 146.657 207.005 146.418 207.306C146.182 207.586 145.899 207.822 145.58 208.002C145.331 208.165 145.04 208.252 144.742 208.254C144.628 208.244 144.518 208.212 144.417 208.159C144.316 208.106 144.227 208.032 144.155 207.943C143.971 207.697 143.851 207.409 143.803 207.105C143.723 206.7 143.687 206.287 143.694 205.873V201.096C143.694 201.012 143.711 200.93 143.745 200.853C143.765 200.784 143.81 200.724 143.87 200.685L144.398 200.375C144.415 200.359 144.438 200.35 144.461 200.35C144.485 200.35 144.507 200.359 144.524 200.375C144.563 200.432 144.581 200.5 144.574 200.568V205.278C144.568 205.537 144.593 205.796 144.65 206.049C144.673 206.211 144.743 206.363 144.851 206.485C144.889 206.53 144.936 206.566 144.99 206.589C145.044 206.612 145.103 206.623 145.161 206.619C145.304 206.61 145.443 206.564 145.563 206.485C145.712 206.396 145.848 206.286 145.966 206.158C146.096 206.008 146.204 205.838 146.284 205.655C146.379 205.44 146.449 205.215 146.494 204.985C146.543 204.708 146.565 204.428 146.561 204.147V199.428C146.563 199.344 146.583 199.261 146.619 199.185C146.64 199.116 146.685 199.057 146.745 199.018L147.298 198.774Z" fill="#FAFAFA"/>
<path d="M150.584 203.284C150.588 203.222 150.573 203.161 150.542 203.108C150.522 203.086 150.497 203.069 150.469 203.059C150.442 203.049 150.412 203.045 150.383 203.049C150.28 203.035 150.175 203.035 150.073 203.049L149.586 203.141C149.43 203.18 149.266 203.18 149.109 203.141C148.986 203.101 148.879 203.022 148.807 202.915C148.725 202.779 148.671 202.628 148.648 202.471C148.566 202.022 148.566 201.562 148.648 201.113C148.711 200.855 148.8 200.605 148.916 200.367C149.031 200.129 149.171 199.904 149.335 199.696C149.494 199.499 149.687 199.331 149.905 199.202C150.081 199.094 150.278 199.026 150.483 199.001C150.632 198.985 150.782 199.018 150.911 199.093C151.034 199.168 151.13 199.279 151.187 199.411C151.255 199.568 151.292 199.736 151.296 199.906C151.305 199.99 151.287 200.075 151.246 200.149C151.225 200.218 151.181 200.278 151.12 200.317L150.617 200.61C150.594 200.623 150.568 200.63 150.542 200.63C150.515 200.63 150.489 200.623 150.466 200.61L150.357 200.526C150.314 200.492 150.262 200.472 150.207 200.467C150.099 200.479 149.995 200.517 149.905 200.576C149.773 200.656 149.657 200.758 149.561 200.878C149.46 201.01 149.407 201.173 149.41 201.339C149.399 201.403 149.399 201.468 149.41 201.532C149.426 201.556 149.448 201.575 149.472 201.59C149.497 201.604 149.524 201.613 149.553 201.616C149.644 201.631 149.738 201.631 149.829 201.616L150.299 201.532C150.693 201.456 150.961 201.532 151.137 201.75C151.322 202.06 151.407 202.42 151.38 202.781C151.378 203.03 151.344 203.278 151.279 203.518C151.213 203.78 151.118 204.033 150.994 204.272C150.871 204.521 150.716 204.752 150.533 204.96C150.36 205.163 150.153 205.336 149.922 205.471C149.737 205.589 149.528 205.661 149.31 205.681C149.152 205.686 148.997 205.642 148.866 205.555C148.736 205.466 148.637 205.341 148.581 205.194C148.513 205.035 148.479 204.864 148.48 204.692C148.472 204.605 148.49 204.517 148.53 204.44C148.551 204.371 148.596 204.312 148.656 204.272L149.159 203.979C149.226 203.979 149.276 203.937 149.31 203.979L149.419 204.096C149.441 204.121 149.468 204.142 149.498 204.156C149.529 204.171 149.561 204.179 149.595 204.18C149.713 204.181 149.828 204.143 149.922 204.071C150.073 203.985 150.209 203.875 150.324 203.744C150.381 203.676 150.429 203.599 150.466 203.518C150.526 203.452 150.566 203.371 150.584 203.284Z" fill="#FAFAFA"/>
<path d="M152.293 201.012C152.292 200.577 152.328 200.142 152.402 199.713C152.472 199.31 152.582 198.914 152.729 198.531C152.853 198.189 153.022 197.865 153.232 197.568C153.408 197.312 153.637 197.098 153.903 196.939C154.097 196.808 154.334 196.757 154.565 196.797C154.77 196.844 154.949 196.967 155.068 197.14C155.225 197.368 155.336 197.624 155.395 197.895C155.475 198.246 155.514 198.606 155.512 198.967V199.487C155.514 199.574 155.494 199.661 155.453 199.738C155.433 199.807 155.388 199.867 155.327 199.906L153.148 201.172C153.143 201.319 153.163 201.466 153.207 201.607C153.239 201.702 153.297 201.786 153.375 201.85C153.443 201.905 153.53 201.932 153.618 201.926C153.719 201.914 153.816 201.88 153.903 201.825C154.029 201.756 154.143 201.666 154.238 201.557C154.324 201.46 154.397 201.353 154.456 201.239C154.492 201.172 154.531 201.108 154.573 201.046C154.609 201.003 154.652 200.966 154.699 200.937L155.218 200.635C155.236 200.621 155.258 200.613 155.281 200.613C155.304 200.613 155.326 200.621 155.344 200.635C155.366 200.662 155.382 200.693 155.391 200.726C155.4 200.759 155.401 200.794 155.395 200.828C155.385 200.991 155.351 201.152 155.294 201.306C155.222 201.538 155.126 201.763 155.009 201.976C154.878 202.221 154.72 202.452 154.54 202.663C154.359 202.879 154.144 203.063 153.903 203.208C153.705 203.338 153.467 203.394 153.232 203.367C153.026 203.318 152.846 203.192 152.729 203.015C152.564 202.761 152.453 202.476 152.402 202.177C152.326 201.794 152.29 201.403 152.293 201.012ZM153.903 198.339C153.774 198.408 153.662 198.505 153.576 198.624C153.483 198.741 153.407 198.871 153.35 199.009C153.291 199.148 153.243 199.291 153.207 199.437C153.178 199.569 153.158 199.704 153.148 199.839L154.623 199.001C154.615 198.885 154.598 198.77 154.573 198.657C154.56 198.556 154.52 198.46 154.456 198.381C154.431 198.344 154.398 198.314 154.361 198.291C154.323 198.268 154.282 198.253 154.238 198.247C154.119 198.236 154 198.269 153.903 198.339Z" fill="#FAFAFA"/>
<path d="M158.144 196C157.89 196.145 157.69 196.369 157.574 196.637C157.443 196.991 157.383 197.367 157.398 197.744V200.769C157.399 200.856 157.382 200.941 157.347 201.021C157.327 201.09 157.282 201.149 157.222 201.188L156.727 201.473C156.719 201.482 156.71 201.489 156.699 201.494C156.688 201.499 156.676 201.502 156.664 201.502C156.652 201.502 156.641 201.499 156.63 201.494C156.619 201.489 156.609 201.482 156.601 201.473C156.564 201.416 156.546 201.348 156.551 201.28V195.858C156.552 195.772 156.569 195.686 156.601 195.606C156.625 195.539 156.669 195.48 156.727 195.439L157.222 195.154C157.239 195.138 157.261 195.129 157.284 195.129C157.308 195.129 157.33 195.138 157.347 195.154C157.386 195.207 157.404 195.273 157.398 195.338V195.606C157.497 195.382 157.621 195.168 157.766 194.969C157.899 194.786 158.071 194.634 158.269 194.525L158.571 194.349C158.587 194.334 158.608 194.325 158.63 194.325C158.652 194.325 158.673 194.334 158.688 194.349C158.729 194.405 158.749 194.473 158.747 194.542V195.305C158.746 195.392 158.726 195.477 158.688 195.556C158.667 195.623 158.626 195.681 158.571 195.724L158.144 196Z" fill="#FAFAFA"/>
<path d="M164.396 195.598C164.404 195.589 164.413 195.582 164.424 195.577C164.435 195.572 164.447 195.57 164.459 195.57C164.471 195.57 164.482 195.572 164.493 195.577C164.504 195.582 164.514 195.589 164.522 195.598C164.559 195.655 164.577 195.723 164.572 195.791V196.629C164.571 196.715 164.554 196.801 164.522 196.88C164.493 196.943 164.45 196.997 164.396 197.04L161.53 198.716C161.512 198.732 161.49 198.741 161.467 198.741C161.443 198.741 161.421 198.732 161.404 198.716C161.366 198.662 161.349 198.597 161.354 198.531V190.988C161.354 190.902 161.371 190.817 161.404 190.737C161.427 190.672 161.471 190.616 161.53 190.578L162.058 190.268C162.075 190.252 162.097 190.243 162.12 190.243C162.144 190.243 162.166 190.252 162.183 190.268C162.221 190.322 162.239 190.387 162.234 190.452V196.83L164.396 195.598Z" fill="#FAFAFA"/>
<path d="M166.969 189.396C167.158 189.265 167.385 189.203 167.614 189.22C167.81 189.235 167.993 189.325 168.125 189.471C168.282 189.651 168.396 189.863 168.461 190.092C168.55 190.388 168.601 190.695 168.612 191.005C168.612 191.072 168.612 191.164 168.612 191.273V191.919C168.612 192.019 168.612 192.111 168.612 192.187C168.595 192.551 168.544 192.913 168.461 193.268C168.383 193.614 168.271 193.951 168.125 194.274C167.993 194.574 167.821 194.856 167.614 195.112C167.437 195.344 167.218 195.54 166.969 195.69C166.775 195.816 166.546 195.878 166.315 195.866C166.122 195.849 165.942 195.76 165.812 195.615C165.651 195.442 165.536 195.231 165.477 195.003C165.387 194.706 165.337 194.399 165.326 194.089C165.326 194.022 165.326 193.939 165.326 193.83V193.184C165.326 193.075 165.326 192.983 165.326 192.916C165.336 192.549 165.384 192.184 165.469 191.826C165.55 191.478 165.665 191.139 165.812 190.812C165.945 190.514 166.114 190.232 166.315 189.974C166.493 189.74 166.715 189.544 166.969 189.396ZM167.757 191.558C167.756 191.373 167.725 191.189 167.664 191.014C167.633 190.907 167.569 190.813 167.48 190.745C167.409 190.697 167.322 190.677 167.237 190.687C167.141 190.705 167.05 190.742 166.969 190.796C166.87 190.85 166.78 190.917 166.701 190.997C166.604 191.097 166.523 191.21 166.458 191.332C166.373 191.484 166.311 191.648 166.273 191.818C166.218 192.032 166.185 192.251 166.173 192.472C166.173 192.539 166.173 192.614 166.173 192.706V193.302C166.173 193.394 166.173 193.469 166.173 193.519C166.18 193.705 166.214 193.888 166.273 194.064C166.304 194.171 166.369 194.266 166.458 194.332C166.492 194.357 166.532 194.374 166.574 194.383C166.616 194.392 166.659 194.392 166.701 194.383C166.796 194.367 166.887 194.332 166.969 194.282C167.066 194.226 167.156 194.159 167.237 194.081C167.331 193.979 167.412 193.866 167.48 193.746C167.561 193.592 167.623 193.428 167.664 193.26C167.719 193.046 167.75 192.827 167.757 192.606C167.762 192.528 167.762 192.449 167.757 192.371V191.785C167.761 191.709 167.761 191.634 167.757 191.558Z" fill="#FAFAFA"/>
<path d="M171.176 194.299C171.283 194.233 171.38 194.151 171.461 194.056C171.562 193.938 171.649 193.808 171.721 193.67C171.804 193.502 171.869 193.325 171.914 193.142C171.965 192.937 171.991 192.726 171.989 192.514V192.086C171.989 192.17 171.905 192.271 171.847 192.388C171.789 192.511 171.722 192.628 171.646 192.74C171.558 192.858 171.463 192.97 171.361 193.075C171.255 193.186 171.134 193.279 171 193.352C170.914 193.411 170.817 193.451 170.715 193.472C170.612 193.492 170.507 193.491 170.405 193.469C170.219 193.411 170.059 193.289 169.953 193.126C169.816 192.909 169.717 192.671 169.659 192.422C169.588 192.105 169.548 191.782 169.542 191.458C169.542 191.349 169.542 191.215 169.542 191.055C169.542 190.896 169.542 190.762 169.542 190.645C169.552 190.276 169.592 189.909 169.659 189.547C169.728 189.19 169.826 188.84 169.953 188.499C170.071 188.204 170.223 187.922 170.405 187.661C170.56 187.43 170.763 187.236 171 187.091C171.112 187.024 171.233 186.976 171.361 186.949C171.455 186.931 171.551 186.931 171.646 186.949C171.72 186.97 171.789 187.007 171.847 187.058C171.9 187.099 171.948 187.147 171.989 187.2V186.932C171.99 186.846 172.007 186.76 172.039 186.681C172.063 186.615 172.107 186.559 172.165 186.521L172.66 186.228C172.677 186.212 172.699 186.203 172.723 186.203C172.746 186.203 172.768 186.212 172.785 186.228C172.826 186.284 172.846 186.352 172.844 186.421V191.868C172.867 192.684 172.715 193.496 172.4 194.249C172.152 194.841 171.724 195.339 171.176 195.673C170.989 195.79 170.776 195.856 170.556 195.866C170.382 195.877 170.209 195.833 170.062 195.741C169.92 195.634 169.805 195.497 169.726 195.338C169.645 195.147 169.599 194.943 169.592 194.735C169.584 194.648 169.602 194.561 169.642 194.483C169.663 194.414 169.708 194.355 169.768 194.316L170.212 194.064C170.223 194.053 170.235 194.045 170.249 194.039C170.262 194.033 170.277 194.03 170.292 194.03C170.307 194.03 170.322 194.033 170.335 194.039C170.349 194.045 170.361 194.053 170.372 194.064C170.413 194.108 170.449 194.156 170.481 194.207C170.532 194.297 170.616 194.363 170.715 194.391C170.816 194.467 170.967 194.383 171.176 194.299ZM170.388 190.234C170.388 190.458 170.388 190.676 170.388 190.888C170.364 191.223 170.459 191.555 170.657 191.827C170.731 191.891 170.826 191.926 170.925 191.926C171.023 191.926 171.118 191.891 171.193 191.827C171.436 191.668 171.626 191.441 171.738 191.173C171.89 190.823 171.976 190.448 171.989 190.066C171.989 189.941 171.989 189.79 171.989 189.614C171.989 189.438 171.989 189.287 171.989 189.178C172.006 188.878 171.917 188.581 171.738 188.34C171.663 188.272 171.566 188.234 171.465 188.234C171.364 188.234 171.267 188.272 171.193 188.34C170.954 188.498 170.768 188.722 170.657 188.985C170.484 189.379 170.393 189.804 170.388 190.234Z" fill="#FAFAFA"/>
<path d="M174.797 182.792C174.813 182.778 174.834 182.771 174.855 182.771C174.877 182.771 174.898 182.778 174.914 182.792C174.958 182.846 174.979 182.915 174.973 182.984V183.898C174.973 183.985 174.953 184.071 174.914 184.149C174.891 184.212 174.85 184.268 174.797 184.309L174.235 184.636C174.227 184.644 174.218 184.652 174.207 184.657C174.196 184.661 174.184 184.664 174.172 184.664C174.161 184.664 174.149 184.661 174.138 184.657C174.127 184.652 174.117 184.644 174.11 184.636C174.088 184.61 174.071 184.581 174.061 184.549C174.051 184.518 174.048 184.484 174.051 184.451V183.538C174.05 183.45 174.07 183.364 174.11 183.286C174.133 183.221 174.177 183.165 174.235 183.127L174.797 182.792ZM174.939 190.662C174.94 190.745 174.922 190.828 174.889 190.905C174.862 190.97 174.819 191.028 174.763 191.072L174.26 191.357C174.253 191.366 174.244 191.373 174.234 191.378C174.224 191.383 174.213 191.385 174.202 191.385C174.19 191.385 174.179 191.383 174.169 191.378C174.159 191.373 174.15 191.366 174.143 191.357C174.099 191.303 174.078 191.234 174.084 191.164V185.742C174.084 185.655 174.104 185.568 174.143 185.49C174.167 185.425 174.207 185.367 174.26 185.323L174.763 185.038C174.78 185.022 174.803 185.013 174.826 185.013C174.849 185.013 174.872 185.022 174.889 185.038C174.926 185.092 174.944 185.157 174.939 185.222V190.662Z" fill="#FAFAFA"/>
<path d="M179.348 188.105C179.347 188.192 179.33 188.277 179.298 188.357C179.274 188.422 179.23 188.478 179.172 188.516L178.669 188.809C178.653 188.825 178.632 188.833 178.61 188.833C178.588 188.833 178.567 188.825 178.552 188.809C178.508 188.755 178.487 188.686 178.493 188.617V185.666C178.519 185.318 178.455 184.969 178.309 184.652C178.191 184.443 178.007 184.409 177.747 184.56C177.488 184.734 177.296 184.991 177.202 185.289C177.062 185.685 176.994 186.102 177.001 186.521V189.48C177.001 189.566 176.984 189.652 176.951 189.731C176.93 189.8 176.886 189.86 176.825 189.899L176.331 190.184C176.323 190.193 176.313 190.2 176.302 190.205C176.291 190.21 176.28 190.212 176.268 190.212C176.256 190.212 176.244 190.21 176.233 190.205C176.222 190.2 176.213 190.193 176.205 190.184C176.166 190.131 176.148 190.065 176.155 190V184.577C176.153 184.49 176.171 184.405 176.205 184.325C176.225 184.256 176.27 184.197 176.331 184.158L176.825 183.873C176.833 183.864 176.843 183.857 176.853 183.852C176.864 183.847 176.876 183.845 176.888 183.845C176.9 183.845 176.912 183.847 176.922 183.852C176.933 183.857 176.943 183.864 176.951 183.873C176.988 183.93 177.006 183.998 177.001 184.066V184.325C177.111 184.07 177.246 183.826 177.403 183.596C177.541 183.385 177.728 183.209 177.948 183.085C178.139 182.946 178.376 182.886 178.61 182.917C178.703 182.941 178.79 182.983 178.865 183.043C178.94 183.102 179.002 183.176 179.046 183.261C179.168 183.488 179.247 183.735 179.281 183.99C179.326 184.324 179.348 184.66 179.348 184.996V188.105Z" fill="#FAFAFA"/>
<path d="M221.622 163.708L213.484 168.401L214.75 156.986C213.769 156.467 213.149 155.201 213.149 153.382C213.149 150.139 215.127 146.376 217.557 145.001C219.988 143.627 221.957 145.085 221.957 148.354C221.907 150.277 221.358 152.154 220.365 153.801L221.622 163.708Z" fill="#455A64"/>
<path d="M221.631 163.708L214.465 159.576L213.484 168.41L221.631 163.708Z" fill="#37474F"/>
<path d="M217.541 144.976C215.768 146.173 214.447 147.929 213.786 149.963L220.348 153.751C221.342 152.104 221.89 150.226 221.941 148.303C221.957 145.06 219.988 143.576 217.541 144.976Z" fill="#37474F"/>
<path d="M177.982 106.968C175.191 105.359 171.344 105.585 167.086 108.041C158.588 112.952 151.698 124.878 151.698 134.692C151.698 139.621 153.442 143.074 156.241 144.666L161.664 147.817C164.446 149.426 168.293 149.192 172.559 146.736C181.058 141.833 187.947 129.898 187.947 120.084C187.947 115.181 186.22 111.703 183.438 110.136" fill="#B0BEC5"/>
<path d="M172.551 111.2C164.052 116.111 157.163 128.046 157.163 137.852C157.163 147.658 164.052 151.647 172.551 146.736C181.049 141.825 187.947 129.898 187.938 120.084C187.93 110.27 181.041 106.297 172.551 111.2Z" fill="#B0BEC5"/>
<path d="M181.041 132.974V134.097C179.005 137.732 176.085 140.793 172.551 142.998C169.24 144.901 166.248 145.11 164.052 143.895V141.582C164.165 139.175 164.852 136.83 166.056 134.744C167.261 132.657 168.947 130.889 170.975 129.588L173.213 128.298C175.191 127.158 177.118 127.007 178.627 127.887C180.136 128.767 181.041 130.619 181.041 132.974Z" fill="#B0BEC5"/>
<path opacity="0.4" d="M177.982 106.968L183.429 110.136C180.647 108.518 176.8 108.745 172.534 111.2C166.969 114.419 162.091 120.646 159.392 127.317L153.936 124.157C156.643 117.453 161.479 111.259 167.078 108.041C171.352 105.593 175.199 105.359 177.982 106.968Z" fill="white"/>
<path opacity="0.2" d="M161.471 147.691L156.249 144.666C153.45 143.073 151.707 139.637 151.707 134.692L157.163 137.86C157.196 142.638 158.806 146.04 161.471 147.691Z" fill="black"/>
<path opacity="0.1" d="M153.953 124.157L159.409 127.317C158.011 130.657 157.26 134.232 157.197 137.852L151.74 134.684C151.808 131.067 152.558 127.495 153.953 124.157Z" fill="black"/>
<path d="M170.606 127.77C170.086 127.775 169.574 127.642 169.123 127.384C168.579 127.021 168.143 126.518 167.861 125.928C167.579 125.338 167.462 124.683 167.522 124.032C167.593 122.505 168.029 121.017 168.793 119.693C169.557 118.369 170.627 117.247 171.914 116.422C172.431 116.009 173.06 115.762 173.719 115.713C174.379 115.664 175.038 115.815 175.61 116.146C176.182 116.477 176.641 116.974 176.927 117.57C177.212 118.167 177.311 118.835 177.211 119.489C177.138 121.016 176.702 122.503 175.938 123.827C175.174 125.151 174.104 126.273 172.819 127.099C172.154 127.514 171.39 127.746 170.606 127.77Z" fill="white"/>
<path d="M178.627 127.879C177.118 126.999 175.191 127.149 173.213 128.289L170.975 129.58C168.946 130.882 167.259 132.651 166.054 134.739C164.85 136.827 164.163 139.174 164.052 141.582V143.903C166.248 145.119 169.24 144.909 172.551 143.007C176.085 140.801 179.005 137.74 181.041 134.106V132.983C181.041 130.619 180.169 128.767 178.627 127.879Z" fill="white"/>
<path d="M350.926 272.872C350.926 272.872 352.041 263.083 356.91 255.481C361.779 247.88 368.468 243.144 374.712 242.65C380.955 242.155 386.001 247.905 379.321 251.869C372.641 255.833 360.774 259.839 355.309 274.59L350.926 272.872Z" fill="#B0BEC5"/>
<path opacity="0.1" d="M350.926 272.872C350.926 272.872 352.041 263.083 356.91 255.481C361.779 247.88 368.468 243.144 374.712 242.65C380.955 242.155 386.001 247.905 379.321 251.869C372.641 255.833 360.774 259.839 355.309 274.59L350.926 272.872Z" fill="black"/>
<path d="M352.761 270.324H352.694C352.612 270.291 352.547 270.226 352.512 270.144C352.478 270.063 352.477 269.971 352.51 269.888C359.098 253.671 371.636 246.891 377.352 245.583C377.395 245.573 377.439 245.572 377.482 245.579C377.526 245.586 377.567 245.602 377.605 245.626C377.642 245.649 377.675 245.679 377.7 245.715C377.726 245.751 377.744 245.792 377.754 245.835C377.764 245.878 377.765 245.922 377.758 245.965C377.751 246.009 377.735 246.05 377.712 246.088C377.688 246.125 377.658 246.158 377.622 246.183C377.586 246.209 377.545 246.227 377.502 246.237C371.904 247.528 359.609 254.182 353.13 270.148C353.098 270.215 353.044 270.269 352.977 270.301C352.91 270.333 352.834 270.341 352.761 270.324Z" fill="white"/>
<path d="M386.102 270.517C385.54 271.791 384.149 272.461 382.858 272.981C381.567 273.501 380.159 274.062 379.455 275.269C378.047 277.7 380.36 281.136 378.852 283.491C378.497 283.965 378.049 284.362 377.537 284.659C377.024 284.956 376.456 285.146 375.868 285.217C374.904 285.393 373.924 285.393 372.952 285.477C372.486 285.471 372.021 285.435 371.56 285.368C370.206 285.066 368.79 285.216 367.529 285.796C365.593 286.885 365.015 289.324 363.825 291.21C363.097 292.32 362.139 293.26 361.015 293.966C359.891 294.672 358.628 295.127 357.312 295.3C356.474 295.409 354.798 295.568 353.96 295.074C353.894 295.042 353.832 295.002 353.776 294.956C353.65 294.822 353.499 294.646 353.432 294.554C353.428 294.535 353.428 294.515 353.432 294.495C353.088 293.23 353.65 291.922 353.675 290.615V290.38C353.616 288.863 353.574 287.355 353.541 285.846C353.468 283.052 353.44 280.259 353.457 277.465C353.457 275.655 353.256 273.677 354.027 271.975C354.865 270.098 356.977 270.056 357.773 268.221C358.092 267.483 358.259 266.704 358.57 265.958C359.049 264.873 359.816 263.941 360.789 263.263C361.761 262.584 362.901 262.186 364.084 262.111C367.764 261.926 371.057 264.902 374.737 264.625C375.684 264.55 376.614 264.256 377.553 264.089C380.528 263.527 383.973 264.374 385.649 266.896C386.017 267.416 386.251 268.018 386.33 268.65C386.409 269.282 386.33 269.923 386.102 270.517Z" fill="#B0BEC5"/>
<path d="M353.063 288.687C352.984 288.664 352.917 288.61 352.876 288.539C352.836 288.467 352.824 288.382 352.845 288.302C357.924 269.243 377.989 266.511 382.707 266.829C382.749 266.831 382.789 266.842 382.827 266.86C382.864 266.878 382.897 266.904 382.925 266.935C382.952 266.966 382.973 267.003 382.986 267.042C382.999 267.081 383.004 267.123 383 267.165C382.992 267.246 382.952 267.321 382.89 267.374C382.828 267.427 382.747 267.454 382.665 267.449C378.064 267.123 358.419 269.813 353.449 288.469C353.425 288.549 353.372 288.616 353.3 288.656C353.228 288.697 353.143 288.708 353.063 288.687Z" fill="white"/>
<path d="M375.382 279.032C375.318 279.023 375.26 278.994 375.214 278.948C373.359 277.341 371.172 276.162 368.809 275.497C366.447 274.832 363.966 274.697 361.545 275.102C361.463 275.109 361.382 275.086 361.316 275.036C361.251 274.986 361.207 274.914 361.193 274.833C361.181 274.751 361.201 274.668 361.249 274.6C361.298 274.533 361.371 274.487 361.453 274.473C363.978 274.053 366.565 274.196 369.028 274.893C371.491 275.59 373.77 276.823 375.7 278.504C375.73 278.533 375.754 278.568 375.77 278.606C375.786 278.644 375.794 278.685 375.794 278.726C375.794 278.768 375.786 278.809 375.77 278.847C375.754 278.885 375.73 278.92 375.7 278.948C375.663 278.994 375.612 279.026 375.555 279.041C375.498 279.056 375.437 279.053 375.382 279.032Z" fill="white"/>
<path d="M304.805 42.6845L307.47 43.707V37.8402C307.47 33.1803 311.183 32.0656 315.214 34.3955C319.254 36.7255 322.522 42.3827 322.522 47.0426V47.8808C323.084 47.7091 323.678 47.6667 324.258 47.7567C324.839 47.8466 325.391 48.0667 325.875 48.4004C327.406 49.3985 328.679 50.7438 329.592 52.3267C330.506 53.9097 331.032 55.6858 331.13 57.5107V57.8962L334.851 60.0418C335.858 60.6989 336.696 61.5838 337.297 62.6249C337.898 63.6659 338.246 64.8339 338.312 66.0343C338.312 68.2469 336.762 69.1437 334.851 68.0374L304.805 50.68C303.797 50.0244 302.959 49.1397 302.359 48.0982C301.759 47.0567 301.414 45.888 301.352 44.6875C301.352 42.4833 302.885 41.5865 304.805 42.6845Z" fill="#E6E6E6"/>
<path d="M340.5 38.0413L345.336 40.8322C345.31 40.6209 345.296 40.4082 345.294 40.1952V38.7956C345.294 36.2812 347.037 35.2923 349.2 36.541C350.129 37.1099 350.924 37.8734 351.53 38.7788C351.882 35.6443 354.346 34.4793 357.329 36.1974C359.034 37.3068 360.454 38.8024 361.473 40.5628C362.493 42.3233 363.083 44.2991 363.196 46.3302V48.4255C363.218 49.2627 363.049 50.0938 362.702 50.856L366.725 53.1692C367.352 53.585 367.872 54.142 368.245 54.7956C368.618 55.4491 368.832 56.181 368.87 56.9323C368.87 58.3152 367.898 58.8767 366.699 58.1895L340.5 43.1035C339.866 42.6906 339.339 42.1337 338.962 41.4782C338.585 40.8227 338.368 40.0873 338.329 39.332C338.329 37.9155 339.302 37.354 340.5 38.0413Z" fill="#E6E6E6"/>
<path d="M321.776 165.242C318.256 171.192 314.87 176.363 312.49 178.844C307.973 180.939 297.362 184.175 293.214 184.711C292.485 184.804 291.747 184.631 291.135 184.225C289.501 183.152 288.235 182.976 286.517 182.381C285.168 181.92 284.598 181.275 284.346 181.543C284.087 181.847 283.956 182.241 283.983 182.64C284.009 183.04 284.191 183.413 284.489 183.68C285.134 184.293 285.848 184.827 286.618 185.272C284.777 185.729 282.858 185.763 281.002 185.373C277.407 184.426 275.714 186.152 278.144 190.058C278.982 191.449 282.435 193.687 289.375 193.084C291.851 192.95 294.316 192.67 296.759 192.246C303.413 190.821 310.814 189.446 315.365 188.055C317.058 187.389 318.573 186.339 319.79 184.987C327.442 176.263 329.982 170.044 333.334 164.395L333.049 155.176C327.618 154.991 324.718 160.263 321.776 165.242Z" fill="#FFA8A7"/>
<path d="M333.979 154.992C332.405 154.77 330.799 154.983 329.337 155.608C327.875 156.233 326.611 157.246 325.682 158.537C321.961 163.306 315.373 174.754 315.373 174.754C315.373 174.754 317.527 180.495 323.344 181.459L332.689 168.837C332.689 168.837 337.114 160.07 333.979 154.992Z" fill="#455A64"/>
<path d="M354.186 283.675H348.093V294.537H354.186V283.675Z" fill="#FFA8A7"/>
<path d="M333.066 283.097L326.981 283.315L326.671 271.816L333.066 271.598V283.097Z" fill="#FFA8A7"/>
<path d="M355.041 189.647C355.041 195.699 354.153 244.452 354.153 244.452C354.287 246.195 355.829 249.413 355.519 256.11C355.058 265.203 354.446 289.106 354.446 289.106C353.4 289.641 352.246 289.932 351.071 289.955C349.897 289.978 348.732 289.734 347.666 289.24C347.666 289.24 342.721 255.716 341.631 246.74C340.676 238.87 338.229 212.821 338.229 212.821L334.935 243.613C335.633 246.917 335.887 250.3 335.689 253.671C335.404 257.861 333.443 279.552 333.443 279.552C332.39 280.173 331.21 280.546 329.992 280.643C328.773 280.741 327.549 280.559 326.411 280.113C326.411 280.113 322.941 247.427 322.874 243.588C322.791 239.23 324.903 189.597 324.903 189.597L355.041 189.647Z" fill="#37474F"/>
<path d="M348.093 291.403V290.497C347.507 290.757 346.157 296.138 343.735 298.434C341.816 300.261 339.201 302.365 338.53 304.402C337.86 306.438 342.176 307.687 343.978 307.36C346.057 306.975 349.677 305.441 350.582 304.008C351.488 302.575 351.915 300.496 352.653 299.457C353.39 298.418 355.091 297.261 355.485 296.054C355.608 294.925 355.491 293.782 355.142 292.702C354.857 291.579 354.555 290.347 354.186 290.456V291.143C353.327 291.848 352.247 292.228 351.136 292.216C350.247 292.291 348.085 292.107 348.093 291.403Z" fill="#263238"/>
<path d="M326.914 281.354C326.596 281.354 326.336 281.831 325.64 282.619C324.606 283.707 323.396 284.614 322.061 285.301C319.782 286.491 315.357 288.318 313.337 289.265C312.08 289.852 312.138 291.428 313.437 292.325C314.736 293.221 317.863 293.867 321.617 292.995C323.662 292.517 326.327 290.548 328.02 290.657C329.713 290.766 332.856 290.732 334.105 289.819C335.354 288.905 334.851 287.011 334.499 285.377C334.114 283.583 333.661 280.792 333.066 280.918V281.546C332.337 282.703 328.557 283.172 326.948 282.326L326.914 281.354Z" fill="#263238"/>
<path d="M338.229 212.821C335.059 211.784 332.161 210.051 329.747 207.751C329.747 207.751 331.423 210.944 336.251 213.919L335.211 241.418L338.229 212.821Z" fill="#263238"/>
<path d="M351.638 155.88C351.638 155.88 356.667 157.037 356.307 166.122L355.259 180.579V202.286C350.784 207.365 330.954 206.996 324.123 201.884C324.123 201.884 324.894 176.196 325.355 166.306C325.682 159.283 327.3 155.746 334.206 154.975L342.696 155.344L351.638 155.88Z" fill="#B0BEC5"/>
<path d="M345.235 137.006C345.264 138.222 345.052 139.432 344.611 140.566C344.17 141.7 343.509 142.735 342.666 143.612C341.823 144.49 340.815 145.192 339.699 145.677C338.584 146.163 337.383 146.423 336.167 146.443C331.138 146.443 328.188 142.101 327.099 137.006C325.087 127.677 331.155 127.56 336.167 127.56C338.622 127.611 340.956 128.634 342.657 130.405C344.357 132.177 345.285 134.551 345.235 137.006Z" fill="#263238"/>
<path d="M349.862 140.819C349.862 140.819 348.47 147.624 347.909 148.748C347.556 149.423 346.955 149.937 346.233 150.181L346.333 145.395L349.862 140.819Z" fill="#263238"/>
<path d="M348.11 131.072C348.11 131.072 349.107 130.82 350.172 132.48C351.077 133.896 351.286 137.081 349.862 140.861L347.238 141.179L348.11 131.072Z" fill="#263238"/>
<path d="M349.074 132.455L352.292 132.513C352.314 132.305 352.293 132.095 352.23 131.896C352.167 131.696 352.063 131.512 351.925 131.355C351.787 131.197 351.619 131.07 351.429 130.981C351.24 130.892 351.035 130.843 350.825 130.837C350.385 130.843 349.963 131.012 349.64 131.311C349.317 131.609 349.115 132.017 349.074 132.455Z" fill="#263238"/>
<path d="M349.468 131.692L351.848 129.404C351.711 129.242 351.542 129.111 351.351 129.018C351.16 128.925 350.953 128.872 350.741 128.863C350.529 128.855 350.318 128.89 350.12 128.967C349.923 129.044 349.743 129.162 349.593 129.312C349.278 129.62 349.09 130.036 349.066 130.477C349.043 130.918 349.186 131.352 349.468 131.692Z" fill="#263238"/>
<path d="M346.451 141.138C346.979 141.464 347.725 140.417 348.378 139.704C349.032 138.992 351.06 138.338 352.116 140.651C353.172 142.965 351.37 145.253 349.862 146.007C347.155 147.348 346.3 145.395 346.3 145.395L346.073 156.173C342.268 162.04 333.636 161.856 336.745 155.888V152.611C335.466 152.824 334.167 152.891 332.873 152.812C330.761 152.477 329.437 150.742 328.792 148.362C327.769 144.54 327.375 141.456 328.247 133.938C329.202 125.708 338.405 125.616 343.333 128.909C348.261 132.203 346.451 141.138 346.451 141.138Z" fill="#FFA8A7"/>
<path d="M334.985 132.656C337.181 132.438 339.352 131.985 341.556 131.818C342.031 131.76 342.513 131.783 342.981 131.885C344.657 132.346 344.456 134.307 344.724 135.673C345.185 138.036 345.562 142.034 346.451 142.051C346.719 142.051 347.724 140.316 348.378 139.696C348.738 139.162 348.941 138.538 348.965 137.894C349.132 136.922 349.216 135.924 349.292 134.935C349.359 134.097 349.443 133.259 349.443 132.421C349.481 131.474 349.405 130.526 349.216 129.597C349.006 128.806 348.603 128.081 348.043 127.485L347.875 127.3C346.771 126.145 345.43 125.242 343.945 124.652C341.808 123.851 339.566 123.363 337.29 123.202C335.017 123.041 332.754 122.761 330.51 122.364C330.381 122.326 330.244 122.326 330.116 122.364C330.025 122.414 329.948 122.487 329.892 122.575C329.837 122.662 329.804 122.763 329.797 122.867C329.705 123.387 329.763 123.924 329.963 124.413C330.163 124.903 330.498 125.325 330.929 125.632C329.412 125.75 327.668 124.962 326.21 124.56C326.092 124.51 325.965 124.484 325.837 124.484C325.709 124.484 325.582 124.51 325.464 124.56C325.318 124.662 325.214 124.814 325.171 124.987C325.065 125.381 325.05 125.794 325.129 126.194C325.262 127.407 325.713 128.563 326.436 129.546C327.566 131.017 329.162 132.06 330.962 132.505C332.288 132.761 333.644 132.811 334.985 132.656Z" fill="#263238"/>
<path d="M336.754 152.611C336.754 152.611 341.464 151.622 343.107 150.709C344.085 150.173 344.879 149.356 345.386 148.362C345.139 149.36 344.697 150.3 344.087 151.128C342.889 152.737 336.754 153.91 336.754 153.91V152.611Z" fill="#F28F8F"/>
<path d="M337.885 139.905C337.876 140.164 337.969 140.416 338.145 140.606C338.321 140.796 338.565 140.909 338.824 140.92C339.029 140.936 339.235 140.891 339.414 140.789C339.593 140.687 339.737 140.533 339.827 140.348C339.917 140.163 339.949 139.955 339.919 139.751C339.889 139.547 339.798 139.357 339.658 139.206C339.518 139.055 339.336 138.949 339.135 138.904C338.934 138.858 338.724 138.874 338.532 138.949C338.341 139.025 338.176 139.157 338.061 139.327C337.945 139.498 337.884 139.699 337.885 139.905Z" fill="#263238"/>
<path d="M339.394 135.841L341.414 137.006C341.56 136.718 341.594 136.386 341.507 136.076C341.42 135.765 341.219 135.499 340.944 135.329C340.81 135.254 340.662 135.208 340.509 135.193C340.356 135.178 340.202 135.195 340.056 135.243C339.91 135.292 339.776 135.37 339.662 135.472C339.548 135.575 339.457 135.701 339.394 135.841Z" fill="#263238"/>
<path d="M337.172 146.703L335.019 147.541C335.062 147.688 335.135 147.826 335.234 147.944C335.332 148.062 335.454 148.159 335.592 148.228C335.729 148.297 335.88 148.337 336.033 148.346C336.187 148.355 336.341 148.332 336.485 148.278C336.778 148.152 337.013 147.919 337.14 147.626C337.268 147.334 337.279 147.003 337.172 146.703Z" fill="#F28F8F"/>
<path d="M329.219 136.704L331.063 135.229C330.98 135.1 330.871 134.99 330.743 134.906C330.615 134.822 330.471 134.766 330.32 134.742C330.169 134.717 330.015 134.725 329.867 134.764C329.719 134.803 329.581 134.873 329.462 134.969C329.215 135.178 329.055 135.47 329.01 135.79C328.965 136.11 329.039 136.435 329.219 136.704Z" fill="#263238"/>
<path d="M330.032 139.629C330.046 139.812 330.114 139.987 330.227 140.133C330.339 140.279 330.492 140.388 330.666 140.448C330.839 140.509 331.027 140.517 331.206 140.472C331.384 140.428 331.546 140.332 331.671 140.197C331.796 140.062 331.879 139.894 331.91 139.712C331.94 139.531 331.918 139.344 331.844 139.176C331.771 139.007 331.65 138.863 331.496 138.762C331.343 138.661 331.163 138.607 330.979 138.606C330.849 138.611 330.722 138.641 330.604 138.695C330.486 138.748 330.38 138.825 330.292 138.92C330.204 139.015 330.136 139.127 330.091 139.248C330.046 139.37 330.026 139.499 330.032 139.629Z" fill="#263238"/>
<path d="M335.086 138.841L334.977 144.8L331.591 144.029L335.086 138.841Z" fill="#F28F8F"/>
<path d="M254.677 188.751L259.932 185.717L262.011 183.194L256.764 186.228L254.677 188.751Z" fill="#B0BEC5"/>
<path opacity="0.4" d="M254.677 188.751L259.932 185.717L262.011 183.194L256.764 186.228L254.677 188.751Z" fill="black"/>
<path d="M268.967 196.998L274.222 193.964L278.605 190.083L273.359 193.109L268.967 196.998Z" fill="#B0BEC5"/>
<path opacity="0.4" d="M268.967 196.998L274.222 193.964L278.605 190.083L273.359 193.109L268.967 196.998Z" fill="black"/>
<path d="M313.605 207.466C314.847 209.131 315.599 211.111 315.776 213.182C314.539 211.513 313.787 209.535 313.605 207.466ZM325.816 207.625C324.048 195.598 317.586 183.705 309.892 179.255C306.196 177.118 302.776 177.042 300.036 178.643L295.091 181.493L294.814 181.66C294.594 181.781 294.382 181.916 294.177 182.063C293.771 182.342 293.39 182.656 293.038 183.001L292.87 183.16C292.719 183.311 292.56 183.487 292.417 183.655C292.275 183.823 292.057 184.082 291.889 184.309C291.534 184.777 291.212 185.27 290.926 185.784C290.775 186.044 290.632 186.32 290.498 186.622L247.31 161.696L242.064 164.722V168.074L242.508 168.326L242.927 168.569V169.239L242.089 169.734V171.678L248.433 185.088L254.702 188.717L256.789 186.203L262.321 189.513L265.497 194.953L269.001 196.973L273.384 193.084L278.765 196.193L280.575 203.661L289.618 208.891C290.065 210.791 290.625 212.663 291.294 214.497C291.353 214.682 291.428 214.875 291.504 215.084C294.504 222.962 299.273 229.709 304.654 232.819C305.299 233.201 305.974 233.529 306.674 233.799C307.043 233.946 307.421 234.072 307.805 234.176C308.14 234.266 308.476 234.341 308.811 234.403C309.869 234.596 310.954 234.596 312.012 234.403L312.448 234.294C312.657 234.252 312.861 234.193 313.06 234.118L313.529 233.933C313.696 233.873 313.856 233.798 314.007 233.707C314.162 233.64 314.313 233.564 314.46 233.481L314.678 233.347C314.717 233.334 314.754 233.314 314.787 233.288C315.985 232.601 318.935 230.891 319.74 230.438C323.729 228.125 326.311 222.275 326.311 214.003C326.304 211.868 326.139 209.736 325.816 207.625Z" fill="#B0BEC5"/>
<path d="M312.071 217.615C309.993 216.417 308.316 212.863 308.316 209.678C308.316 206.494 309.993 204.876 312.071 206.066C314.15 207.256 315.818 210.818 315.818 214.011C315.818 217.205 314.141 218.814 312.071 217.615ZM320.561 210.651C318.801 198.632 312.339 186.731 304.637 182.289C301.067 180.227 297.765 180.076 295.083 181.493L294.806 181.66C294.586 181.782 294.373 181.916 294.169 182.063C293.763 182.342 293.382 182.656 293.029 183.001L292.862 183.161C292.711 183.311 292.551 183.487 292.409 183.655C292.267 183.823 292.049 184.082 291.881 184.309C291.525 184.777 291.203 185.27 290.917 185.784C290.766 186.044 290.624 186.32 290.49 186.622C289.708 188.242 289.145 189.958 288.814 191.726L242.055 164.722V168.074L242.499 168.326L242.918 168.569V169.239L242.08 169.734V171.678L248.425 185.088L254.694 188.717L256.781 186.203L262.312 189.513L265.489 194.953L268.992 196.973L273.375 193.084L278.756 196.193L280.567 203.661L289.618 208.891C290.065 210.791 290.625 212.663 291.294 214.498C291.353 214.682 291.428 214.875 291.504 215.084C294.504 222.962 299.273 229.709 304.654 232.819C305.299 233.201 305.974 233.529 306.674 233.799C307.043 233.946 307.421 234.072 307.805 234.176C308.14 234.266 308.476 234.341 308.811 234.403C309.869 234.596 310.954 234.596 312.012 234.403L312.448 234.294C312.657 234.252 312.861 234.193 313.06 234.118L313.529 233.933C313.696 233.873 313.856 233.798 314.007 233.707C314.162 233.64 314.313 233.565 314.46 233.481L314.678 233.347C314.717 233.334 314.754 233.314 314.787 233.288C318.608 230.874 321.064 225.108 321.064 217.037C321.05 214.899 320.882 212.765 320.561 210.651Z" fill="#B0BEC5"/>
<path opacity="0.4" d="M315.817 214.003C315.817 217.196 314.141 218.814 312.071 217.615C310.001 216.417 308.316 212.872 308.316 209.678C308.316 206.485 309.993 204.868 312.071 206.066C312.67 206.43 313.191 206.909 313.605 207.474C313.785 209.544 314.536 211.523 315.775 213.19C315.806 213.46 315.82 213.731 315.817 214.003Z" fill="black"/>
<path opacity="0.4" d="M326.294 213.995C326.294 222.267 323.713 228.117 319.723 230.43C318.885 230.883 315.968 232.592 314.77 233.28C318.592 230.866 321.047 225.1 321.047 217.029C321.038 214.894 320.876 212.762 320.561 210.651C318.801 198.632 312.339 186.731 304.637 182.289C301.067 180.227 297.765 180.076 295.083 181.493L300.028 178.643C302.768 177.042 306.188 177.118 309.884 179.255C317.586 183.705 324.048 195.598 325.808 207.625C326.127 209.733 326.29 211.862 326.294 213.995Z" fill="white"/>
<path d="M321.047 217.012C321.047 225.083 318.592 230.849 314.77 233.263C315.968 232.576 318.919 230.866 319.723 230.413C323.713 228.1 326.294 222.25 326.294 213.978C326.294 213.676 326.294 213.366 326.294 213.056L321.047 216.09C321.039 216.417 321.047 216.718 321.047 217.012Z" fill="#B0BEC5"/>
<path opacity="0.1" d="M321.047 217.012C321.047 225.083 318.592 230.849 314.77 233.263C315.968 232.576 318.919 230.866 319.723 230.413C323.713 228.1 326.294 222.25 326.294 213.978C326.294 213.676 326.294 213.366 326.294 213.056L321.047 216.09C321.039 216.417 321.047 216.718 321.047 217.012Z" fill="black"/>
<path opacity="0.15" d="M289.015 195.154V196.855L242.064 169.751L242.927 169.248V168.544L289.015 195.154Z" fill="black"/>
<path opacity="0.15" d="M289.015 195.858V196.855L242.064 169.751L242.927 169.248V169.239L289.015 195.858Z" fill="black"/>
<path opacity="0.15" d="M309.431 230.422C307.652 230.375 305.916 229.858 304.402 228.921C296.751 224.505 290.523 211.363 290.523 199.629C290.523 192.782 292.593 187.67 296.206 185.583C298.72 184.124 301.695 184.309 304.822 186.111C312.465 190.527 318.692 203.711 318.692 215.445C318.692 222.284 316.622 227.404 313.01 229.483C311.92 230.105 310.686 230.429 309.431 230.422ZM299.835 185.457C298.718 185.451 297.619 185.74 296.65 186.295C293.356 188.198 291.387 193.184 291.387 199.621C291.387 211.086 297.421 223.926 304.847 228.184C307.688 229.86 310.378 230.011 312.616 228.72C315.91 226.818 317.879 221.839 317.879 215.403C317.879 203.929 311.845 191.097 304.428 186.831C303.041 185.988 301.457 185.525 299.835 185.49V185.457Z" fill="black"/>
<path opacity="0.4" d="M290.456 186.605C289.675 188.225 289.111 189.941 288.78 191.709L242.022 164.705L247.268 161.68L290.456 186.605Z" fill="white"/>
<path d="M351.228 189.228C353.675 184.594 356.474 174.184 357.866 168.929C359.844 161.47 356.642 156.777 353.005 156.584C350.733 156.936 343.249 184.149 343.249 184.149C342.411 184.811 331.038 190.586 327.384 192.036C326.73 192.283 326.009 192.283 325.355 192.036C323.604 191.399 322.405 191.516 320.687 191.349C319.338 191.215 318.659 190.737 318.483 191.022C318.323 191.376 318.302 191.776 318.425 192.145C318.548 192.513 318.805 192.821 319.145 193.008C319.885 193.439 320.672 193.782 321.492 194.031C320.023 194.476 318.492 194.683 316.957 194.643C313.437 194.567 312.172 196.092 314.904 199.671C316.58 201.901 319.354 202.605 325.548 200.467C327.325 199.847 329.739 198.649 331.993 197.836C336.636 196.16 337.86 195.958 341.397 194.76C346.551 193.017 350.138 191.29 351.228 189.228Z" fill="#FFA8A7"/>
<path d="M351.638 155.88C353.776 156.173 355.829 156.651 357.095 158.394C358.36 160.138 359.374 162.585 358.134 169.248C357.184 173.934 355.913 178.549 354.329 183.06C354.329 183.06 349.35 185.189 344.062 179.791L347.699 165.728C347.699 165.728 348.286 156.584 351.638 155.88Z" fill="#455A64"/>
</svg>
