<svg width="197" height="27" viewBox="0 0 197 27" fill="none" xmlns="http://www.w3.org/2000/svg">
<g clip-path="url(#clip0_20_915)">
<mask id="mask0_20_915" style="mask-type:luminance" maskUnits="userSpaceOnUse" x="0" y="0" width="27" height="27">
<path d="M26.5367 0H0V26.5367H26.5367V0Z" fill="white"/>
</mask>
<g mask="url(#mask0_20_915)">
<mask id="mask1_20_915" style="mask-type:luminance" maskUnits="userSpaceOnUse" x="0" y="0" width="27" height="27">
<path d="M26.5367 0H0V26.5367H26.5367V0Z" fill="white"/>
</mask>
<g mask="url(#mask1_20_915)">
<path d="M18.5757 0H7.96101C3.56427 0 0 3.56427 0 7.96101V18.5757C0 22.9724 3.56427 26.5367 7.96101 26.5367H18.5757C22.9724 26.5367 26.5367 22.9724 26.5367 18.5757V7.96101C26.5367 3.56427 22.9724 0 18.5757 0Z" fill="#333333"/>
</g>
<mask id="mask2_20_915" style="mask-type:luminance" maskUnits="userSpaceOnUse" x="4" y="4" width="19" height="19">
<path d="M22.114 4.42286H4.42287V22.114H22.114V4.42286Z" fill="white"/>
</mask>
<g mask="url(#mask2_20_915)">
<path d="M13.2667 4.84455C12.8198 4.84455 12.3913 5.02206 12.0753 5.33803C11.7593 5.65401 11.5818 6.08256 11.5818 6.52941C11.5815 6.80503 11.6493 7.07645 11.779 7.31962L18.9397 20.7985C19.0831 21.0687 19.2973 21.2946 19.5594 21.4523C19.8215 21.6099 20.1216 21.6932 20.4274 21.6933C20.8742 21.6933 21.3028 21.5157 21.6188 21.1998C21.9348 20.8838 22.1122 20.4553 22.1122 20.0083C22.1125 19.7327 22.0449 19.4613 21.9151 19.2181L14.7544 5.73922C14.611 5.46911 14.3967 5.24313 14.1346 5.08552C13.8726 4.92791 13.5725 4.84461 13.2667 4.84455Z" fill="white"/>
<path d="M13.3618 15.7948H13.1731C12.8673 15.7949 12.5672 15.8782 12.3051 16.0358C12.0431 16.1934 11.8287 16.4194 11.6854 16.6895C11.5491 16.9462 11.4814 17.2338 11.4892 17.5243C11.4968 17.815 11.5796 18.0986 11.7294 18.3477C11.8791 18.5968 12.0907 18.803 12.3437 18.9461C12.5967 19.0892 12.8824 19.1645 13.1731 19.1645H13.3618C13.6525 19.1645 13.9381 19.0892 14.1912 18.9461C14.4442 18.803 14.6558 18.5968 14.8055 18.3477C14.9553 18.0986 15.0381 17.815 15.0457 17.5243C15.0535 17.2338 14.9858 16.9462 14.8495 16.6895C14.7061 16.4194 14.4918 16.1934 14.2298 16.0358C13.9677 15.8782 13.6676 15.7949 13.3618 15.7948Z" fill="white"/>
<path d="M8.9181 11.1243L4.62001 19.2118C4.48947 19.4564 4.42173 19.7296 4.42288 20.007C4.42288 20.4539 4.60039 20.8824 4.91637 21.1984C5.23234 21.5144 5.66089 21.6919 6.10775 21.6919C6.41358 21.6918 6.71362 21.6085 6.97571 21.4509C7.2378 21.2933 7.45205 21.0673 7.59549 20.7972L11.8952 12.7098C12.0245 12.4665 12.092 12.1952 12.092 11.9196C12.092 11.6441 12.0245 11.3728 11.8952 11.1294C11.7523 10.8588 11.5384 10.6321 11.2765 10.4739C11.0144 10.3156 10.7143 10.2318 10.4082 10.2313C10.1021 10.2308 9.80171 10.3136 9.53918 10.4709C9.27665 10.6283 9.06194 10.8542 8.9181 11.1243Z" fill="white"/>
</g>
</g>
<path d="M34.0173 23.9475C33.4867 23.9475 33.0489 23.7949 32.704 23.4899C32.359 23.1847 32.1866 22.7469 32.1866 22.1765V10.8043C32.1866 10.2404 32.359 9.80927 32.704 9.51078C33.0489 9.21893 33.4867 9.073 34.0173 9.073C34.5479 9.073 34.9891 9.21893 35.3406 9.51078C35.6988 9.80927 35.8779 10.2404 35.8779 10.8043V22.1765C35.8779 22.7469 35.6988 23.1847 35.3406 23.4899C34.9891 23.7949 34.5479 23.9475 34.0173 23.9475ZM34.0173 6.44634C33.3474 6.44634 32.8167 6.26393 32.4254 5.89912C32.0341 5.54093 31.8384 5.06668 31.8384 4.47634C31.8384 3.88601 32.0341 3.41507 32.4254 3.06351C32.8167 2.70533 33.3474 2.52624 34.0173 2.52624C34.6673 2.52624 35.1914 2.70533 35.5893 3.06351C35.994 3.41507 36.1963 3.88601 36.1963 4.47634C36.1963 5.06668 36.0006 5.54093 35.6092 5.89912C35.2179 6.26393 34.6872 6.44634 34.0173 6.44634Z" fill="#333333"/>
<path d="M49.3954 21.2019C50.3771 21.2616 50.8679 21.7059 50.8679 22.5351C50.8679 23.006 50.6788 23.3642 50.3008 23.6097C49.916 23.855 49.3688 23.9579 48.6591 23.9181L47.8631 23.8584C44.5666 23.6196 42.9182 21.8519 42.9182 18.5553V12.1379H41.4457C40.9151 12.1379 40.5072 12.0185 40.2219 11.7797C39.9367 11.5475 39.7941 11.2026 39.7941 10.745C39.7941 10.2938 39.9367 9.95228 40.2219 9.72011C40.5072 9.48132 40.9151 9.36193 41.4457 9.36193H42.9182V6.65567C42.9182 6.12503 43.0841 5.70384 43.4157 5.39208C43.754 5.0737 44.2084 4.91451 44.7788 4.91451C45.3227 4.91451 45.7638 5.0737 46.1021 5.39208C46.4337 5.70384 46.5996 6.12503 46.5996 6.65567V9.36193H49.1068C49.6374 9.36193 50.0454 9.48132 50.3306 9.72011C50.6159 9.95228 50.7584 10.2938 50.7584 10.745C50.7584 11.2026 50.6159 11.5475 50.3306 11.7797C50.0454 12.0185 49.6374 12.1379 49.1068 12.1379H46.5996V18.8239C46.5996 20.2766 47.2662 21.0526 48.5994 21.1521L49.3954 21.2019Z" fill="#333333"/>
<path d="M63.1455 9.01339C66.5217 9.01339 68.2098 10.9867 68.2098 14.9333V22.1765C68.2098 22.7271 68.0506 23.1582 67.7323 23.47C67.4072 23.7883 66.9595 23.9475 66.3891 23.9475C65.8187 23.9475 65.3676 23.7883 65.0359 23.47C64.6977 23.1582 64.5285 22.7271 64.5285 22.1765V14.9333C64.5285 13.892 64.3196 13.1292 63.9017 12.6449C63.4772 12.1673 62.8139 11.9285 61.9118 11.9285C60.8505 11.9285 60.0015 12.2635 59.3647 12.9334C58.728 13.5968 58.4096 14.489 58.4096 15.6099V22.1765C58.4096 22.7271 58.2404 23.1582 57.9022 23.47C57.5705 23.7883 57.1194 23.9475 56.549 23.9475C55.9786 23.9475 55.5309 23.7883 55.2058 23.47C54.8808 23.1582 54.7183 22.7271 54.7183 22.1765V4.56596C54.7183 4.05522 54.8907 3.64066 55.2357 3.32227C55.5806 3.01053 56.0284 2.85465 56.5789 2.85465C57.1294 2.85465 57.5705 3.00058 57.9022 3.29243C58.2404 3.59091 58.4096 3.99553 58.4096 4.50626V11.3714C58.9004 10.602 59.5505 10.015 60.3597 9.61036C61.1755 9.21238 62.1041 9.01339 63.1455 9.01339Z" fill="#333333"/>
<path d="M83.8284 19.8199C84.16 19.8199 84.432 19.9492 84.6442 20.2079C84.8499 20.46 84.9527 20.8016 84.9527 21.2327C84.9527 21.843 84.5878 22.3537 83.8582 22.7649C83.1883 23.143 82.4322 23.4449 81.5898 23.6703C80.7473 23.8959 79.9414 24.0086 79.172 24.0086C76.8571 24.0086 75.0231 23.3387 73.67 21.9988C72.3168 20.6656 71.6403 18.8416 71.6403 16.5266C71.6403 15.0541 71.9321 13.7474 72.5158 12.6065C73.1061 11.4657 73.9353 10.5835 75.0032 9.95994C76.0777 9.32985 77.2916 9.01479 78.6447 9.01479C79.9448 9.01479 81.0757 9.3 82.0375 9.87045C82.9993 10.4342 83.7455 11.2369 84.2761 12.2782C84.8067 13.3196 85.0721 14.5467 85.0721 15.9595C85.0721 16.8086 84.6973 17.233 83.9478 17.233H75.2619C75.3746 18.5862 75.7561 19.5811 76.4061 20.2179C77.0561 20.8546 77.998 21.173 79.2317 21.173C79.8618 21.173 80.419 21.0968 80.9032 20.9442C81.3808 20.785 81.9248 20.5695 82.535 20.2975C83.1253 19.9791 83.5565 19.8199 83.8284 19.8199ZM78.7343 11.6016C77.7326 11.6016 76.9334 11.9167 76.3364 12.5468C75.7328 13.177 75.3746 14.079 75.2619 15.2531H81.9181C81.8783 14.0591 81.5831 13.1537 81.0326 12.5369C80.4821 11.9134 79.716 11.6016 78.7343 11.6016Z" fill="#333333"/>
<path d="M105.66 9.01479C107.232 9.01479 108.436 9.47909 109.271 10.4077C110.107 11.3429 110.525 12.852 110.525 14.9347V22.1779C110.525 22.7484 110.353 23.1862 110.008 23.4913C109.662 23.7964 109.215 23.9489 108.664 23.9489C108.14 23.9489 107.706 23.7964 107.361 23.4913C107.016 23.1862 106.844 22.7484 106.844 22.1779V14.9347C106.844 13.8536 106.652 13.0808 106.267 12.6165C105.882 12.1588 105.298 11.9299 104.515 11.9299C103.553 11.9299 102.787 12.2583 102.217 12.9149C101.647 13.5716 101.361 14.4704 101.361 15.6113V22.1779C101.361 22.7484 101.189 23.1862 100.844 23.4913C100.506 23.7964 100.071 23.9489 99.5407 23.9489C99.0102 23.9489 98.5658 23.7964 98.2076 23.4913C97.8561 23.1862 97.6803 22.7484 97.6803 22.1779V14.9347C97.6803 13.8536 97.4879 13.0808 97.1032 12.6165C96.7251 12.1588 96.1414 11.9299 95.3521 11.9299C94.3903 11.9299 93.6308 12.2583 93.0736 12.9149C92.5098 13.5716 92.2279 14.4704 92.2279 15.6113V22.1779C92.2279 22.7484 92.0521 23.1862 91.7006 23.4913C91.3491 23.7964 90.9079 23.9489 90.3773 23.9489C89.8467 23.9489 89.409 23.7964 89.064 23.4913C88.7191 23.1862 88.5466 22.7484 88.5466 22.1779V10.7758C88.5466 10.232 88.7257 9.81075 89.0839 9.51226C89.4354 9.22041 89.8766 9.07449 90.4072 9.07449C90.9179 9.07449 91.3358 9.21709 91.6608 9.50232C91.9859 9.78753 92.1483 10.1922 92.1483 10.7161V11.4325C92.5994 10.6432 93.203 10.0429 93.9592 9.63166C94.7153 9.22041 95.5842 9.01479 96.5659 9.01479C98.7217 9.01479 100.165 9.91687 100.894 11.721C101.325 10.8986 101.961 10.2419 102.804 9.75105C103.653 9.2602 104.605 9.01479 105.66 9.01479Z" fill="#333333"/>
<path d="M126.611 19.8199C126.943 19.8199 127.215 19.9492 127.427 20.2079C127.633 20.46 127.736 20.8016 127.736 21.2327C127.736 21.843 127.37 22.3537 126.641 22.7649C125.972 23.143 125.215 23.4449 124.373 23.6703C123.53 23.8959 122.724 24.0086 121.955 24.0086C119.64 24.0086 117.806 23.3387 116.453 21.9988C115.1 20.6656 114.423 18.8416 114.423 16.5266C114.423 15.0541 114.715 13.7474 115.299 12.6065C115.889 11.4657 116.719 10.5835 117.786 9.95994C118.861 9.32985 120.074 9.01479 121.428 9.01479C122.728 9.01479 123.858 9.3 124.82 9.87045C125.783 10.4342 126.529 11.2369 127.059 12.2782C127.589 13.3196 127.855 14.5467 127.855 15.9595C127.855 16.8086 127.48 17.233 126.731 17.233H118.045C118.157 18.5862 118.539 19.5811 119.189 20.2179C119.839 20.8546 120.781 21.173 122.015 21.173C122.644 21.173 123.202 21.0968 123.686 20.9442C124.164 20.785 124.708 20.5695 125.318 20.2975C125.908 19.9791 126.34 19.8199 126.611 19.8199ZM121.517 11.6016C120.515 11.6016 119.716 11.9167 119.119 12.5468C118.515 13.177 118.157 14.079 118.045 15.2531H124.701C124.661 14.0591 124.366 13.1537 123.815 12.5369C123.265 11.9134 122.499 11.6016 121.517 11.6016Z" fill="#333333"/>
<path d="M138.523 24.0086C137.09 24.0086 135.827 23.7036 134.732 23.0933C133.645 22.4831 132.805 21.6175 132.215 20.4965C131.625 19.3821 131.329 18.0787 131.329 16.5863C131.329 15.0939 131.641 13.7706 132.265 12.6165C132.881 11.469 133.75 10.5835 134.871 9.95994C135.993 9.32985 137.279 9.01479 138.732 9.01479C139.495 9.01479 140.264 9.12091 141.04 9.33317C141.816 9.55206 142.5 9.84722 143.09 10.2186C143.713 10.6299 144.025 11.1506 144.025 11.7807C144.025 12.2119 143.922 12.5601 143.716 12.8254C143.511 13.0907 143.242 13.2234 142.911 13.2234C142.692 13.2234 142.466 13.1736 142.234 13.0741C141.995 12.9813 141.759 12.8652 141.528 12.7259C141.097 12.4672 140.682 12.2649 140.284 12.119C139.893 11.9731 139.441 11.9001 138.931 11.9001C137.717 11.9001 136.782 12.2981 136.125 13.094C135.461 13.89 135.13 15.0342 135.13 16.5266C135.13 17.9991 135.461 19.1334 136.125 19.9293C136.782 20.7253 137.717 21.1233 138.931 21.1233C139.421 21.1233 139.859 21.0471 140.244 20.8944C140.629 20.7486 141.057 20.5496 141.528 20.2975C141.819 20.1184 142.075 19.9857 142.294 19.8995C142.506 19.8067 142.722 19.7602 142.94 19.7602C143.252 19.7602 143.517 19.8995 143.736 20.1781C143.948 20.4501 144.055 20.7917 144.055 21.2029C144.055 21.5412 143.982 21.8331 143.836 22.0784C143.69 22.3239 143.451 22.5428 143.119 22.7351C142.51 23.1331 141.803 23.4449 141 23.6703C140.191 23.8959 139.366 24.0086 138.523 24.0086Z" fill="#333333"/>
<path d="M154.619 24.0086C153.147 24.0086 151.853 23.7036 150.739 23.0933C149.631 22.4831 148.772 21.6075 148.162 20.4666C147.558 19.3324 147.257 18.0091 147.257 16.4968C147.257 14.9844 147.558 13.6645 148.162 12.5369C148.772 11.4026 149.631 10.5337 150.739 9.93014C151.853 9.3199 153.147 9.01479 154.619 9.01479C156.092 9.01479 157.382 9.3199 158.489 9.93014C159.597 10.5337 160.453 11.4026 161.056 12.5369C161.653 13.6645 161.952 14.9844 161.952 16.4968C161.952 18.0091 161.653 19.3324 161.056 20.4666C160.453 21.6075 159.597 22.4831 158.489 23.0933C157.382 23.7036 156.092 24.0086 154.619 24.0086ZM154.589 21.1531C155.783 21.1531 156.696 20.7585 157.325 19.9691C157.955 19.1865 158.271 18.029 158.271 16.4968C158.271 14.9844 157.955 13.8303 157.325 13.0343C156.696 12.2384 155.793 11.8404 154.619 11.8404C153.438 11.8404 152.53 12.2384 151.893 13.0343C151.256 13.8303 150.938 14.9844 150.938 16.4968C150.938 18.029 151.249 19.1865 151.873 19.9691C152.503 20.7585 153.408 21.1531 154.589 21.1531Z" fill="#333333"/>
<path d="M177.971 2.85465C178.521 2.85465 178.975 3.01053 179.334 3.32227C179.685 3.64066 179.861 4.05522 179.861 4.56596V22.1765C179.861 22.7072 179.692 23.1284 179.354 23.4401C179.022 23.7585 178.58 23.9177 178.03 23.9177C177.48 23.9177 177.038 23.7585 176.707 23.4401C176.376 23.1284 176.21 22.7072 176.21 22.1765V21.4403C175.779 22.2429 175.155 22.873 174.339 23.3307C173.523 23.7818 172.595 24.0072 171.553 24.0072C170.312 24.0072 169.208 23.6922 168.24 23.062C167.265 22.4319 166.509 21.5431 165.971 20.3956C165.434 19.2481 165.166 17.9281 165.166 16.4357C165.166 14.9432 165.434 13.6366 165.971 12.5156C166.509 11.3947 167.258 10.5323 168.22 9.92874C169.182 9.31851 170.293 9.01339 171.553 9.01339C172.595 9.01339 173.516 9.22896 174.319 9.6601C175.128 10.0913 175.749 10.6982 176.18 11.4808V4.50626C176.18 4.01543 176.342 3.61745 176.667 3.31233C176.986 3.0072 177.42 2.85465 177.971 2.85465ZM172.528 21.1517C173.702 21.1517 174.608 20.7472 175.244 19.9379C175.888 19.1354 176.21 17.9878 176.21 16.4954C176.21 15.0029 175.888 13.8588 175.244 13.0628C174.608 12.2668 173.712 11.8689 172.558 11.8689C171.377 11.8689 170.462 12.2603 169.812 13.0429C169.168 13.8323 168.847 14.9631 168.847 16.4357C168.847 17.9281 169.168 19.0856 169.812 19.908C170.462 20.7372 171.367 21.1517 172.528 21.1517Z" fill="#333333"/>
<path d="M195.263 19.8199C195.594 19.8199 195.867 19.9492 196.079 20.2079C196.285 20.46 196.387 20.8016 196.387 21.2327C196.387 21.843 196.022 22.3537 195.293 22.7649C194.623 23.143 193.867 23.4449 193.024 23.6703C192.181 23.8959 191.376 24.0086 190.606 24.0086C188.291 24.0086 186.458 23.3387 185.104 21.9988C183.751 20.6656 183.075 18.8416 183.075 16.5266C183.075 15.0541 183.366 13.7474 183.95 12.6065C184.54 11.4657 185.37 10.5835 186.438 9.95994C187.512 9.32985 188.726 9.01479 190.079 9.01479C191.38 9.01479 192.51 9.3 193.472 9.87045C194.434 10.4342 195.18 11.2369 195.711 12.2782C196.241 13.3196 196.506 14.5467 196.506 15.9595C196.506 16.8086 196.131 17.233 195.382 17.233H186.696C186.809 18.5862 187.191 19.5811 187.84 20.2179C188.49 20.8546 189.432 21.173 190.666 21.173C191.296 21.173 191.853 21.0968 192.338 20.9442C192.815 20.785 193.359 20.5695 193.969 20.2975C194.559 19.9791 194.991 19.8199 195.263 19.8199ZM190.169 11.6016C189.167 11.6016 188.368 11.9167 187.771 12.5468C187.167 13.177 186.809 14.079 186.696 15.2531H193.353C193.313 14.0591 193.017 13.1537 192.467 12.5369C191.917 11.9134 191.151 11.6016 190.169 11.6016Z" fill="#333333"/>
</g>
<defs>
<clipPath id="clip0_20_915">
<rect width="197" height="26.8636" fill="white"/>
</clipPath>
</defs>
</svg>
