<svg width="85" height="45" viewBox="0 0 85 45" fill="none" xmlns="http://www.w3.org/2000/svg">
<path d="M0 22.3567C0 34.7038 19.0284 44.7133 42.4999 44.7133C65.9716 44.7133 85 34.7038 85 22.3567C85 10.0098 65.9716 5.72205e-05 42.4999 5.72205e-05C19.0284 0.000263214 0 10.0098 0 22.3567Z" fill="url(#paint0_radial_20_1034)"/>
<path d="M42.4998 43.0534C65.0548 43.0534 83.3397 33.787 83.3397 22.3566C83.3397 10.9264 65.0548 1.65988 42.4998 1.65988C19.9449 1.65988 1.66016 10.9264 1.66016 22.3566C1.66016 33.7872 19.945 43.0534 42.4998 43.0534Z" fill="#777BB3"/>
<path d="M23.0905 24.9228C24.945 24.9228 26.3296 24.5809 27.2055 23.9065C28.0722 23.2392 28.6707 22.0831 28.9845 20.4705C29.2771 18.9631 29.1657 17.9106 28.6533 17.3428C28.1295 16.7628 26.9974 16.4686 25.2879 16.4686H22.3239L20.6809 24.9231H23.0905V24.9228ZM13.3967 35.337C13.3286 35.3371 13.2614 35.3221 13.1999 35.2931C13.1383 35.2642 13.084 35.2219 13.0407 35.1694C12.9974 35.1169 12.9663 35.0555 12.9496 34.9895C12.9329 34.9236 12.931 34.8548 12.9441 34.788L17.2987 12.3835C17.3192 12.2784 17.3756 12.1837 17.4582 12.1157C17.5408 12.0476 17.6445 12.0103 17.7515 12.0103H27.1365C30.086 12.0103 32.2816 12.8113 33.6613 14.391C35.0487 15.979 35.4771 18.199 34.9346 20.9888C34.714 22.1252 34.3342 23.1808 33.8063 24.1261C33.2777 25.0722 32.5789 25.9475 31.7294 26.7285C30.7122 27.6803 29.5613 28.3706 28.3114 28.7768C27.0812 29.1774 25.5013 29.3807 23.6156 29.3807H19.8152L18.7299 34.9639C18.7094 35.0689 18.6531 35.1636 18.5705 35.2317C18.488 35.2998 18.3843 35.337 18.2773 35.337H13.3967Z" fill="black"/>
<path d="M22.7049 16.9295H25.2884C27.3514 16.9295 28.0681 17.3822 28.3118 17.6518C28.7157 18.0998 28.7918 19.0444 28.5324 20.3831C28.2407 21.8817 27.6998 22.9445 26.9247 23.5412C26.1314 24.152 24.8412 24.4615 23.0908 24.4615H21.241L22.7049 16.9295ZM27.1365 11.5492H17.7513C17.5373 11.5492 17.3299 11.6237 17.1647 11.7599C16.9996 11.896 16.8869 12.0854 16.8461 12.2955L12.4917 34.7002C12.4658 34.8337 12.4698 34.9713 12.5033 35.1031C12.5368 35.2349 12.599 35.3577 12.6855 35.4626C12.772 35.5676 12.8807 35.6521 13.0037 35.7101C13.1267 35.7681 13.261 35.7982 13.397 35.7983H18.2774C18.4915 35.7983 18.6989 35.7239 18.8641 35.5877C19.0294 35.4515 19.1421 35.2621 19.1829 35.052L20.1955 29.8418H23.6157C25.5498 29.8418 27.1779 29.6308 28.4546 29.2151C29.7675 28.7886 30.9754 28.0654 32.0445 27.0655C32.9288 26.2522 33.657 25.339 34.2088 24.3512C34.7608 23.3633 35.1574 22.2615 35.3875 21.0767C35.9586 18.1402 35.4947 15.7887 34.0087 14.0878C32.5374 12.4034 30.225 11.5492 27.1365 11.5492ZM20.122 25.3839H23.0908C25.0586 25.3839 26.5242 25.0132 27.4872 24.2719C28.4504 23.5304 29.1 22.2927 29.4376 20.5586C29.7604 18.8936 29.6133 17.7187 28.9963 17.034C28.3783 16.3494 27.1425 16.0071 25.2884 16.0071H21.9444L20.122 25.3839ZM27.1365 12.4716C29.9598 12.4716 32.0196 13.2125 33.3141 14.6945C34.6086 16.1765 34.9985 18.2451 34.4821 20.9008C34.2695 21.9949 33.9098 22.9952 33.4037 23.9012C32.8969 24.8079 32.2352 25.6372 31.4174 26.3891C30.4427 27.3011 29.3603 27.9511 28.1689 28.3382C26.9776 28.7263 25.4602 28.9194 23.6157 28.9194H19.4351L18.2774 34.8759H13.397L17.7513 12.4717L27.1365 12.4716Z" fill="white"/>
<path d="M46.125 29.3805C46.057 29.3805 45.9898 29.3655 45.9282 29.3365C45.8667 29.3075 45.8123 29.2652 45.7691 29.2127C45.7258 29.1603 45.6947 29.0988 45.6779 29.0329C45.6612 28.967 45.6592 28.8981 45.6722 28.8313L47.5987 18.9182C47.7819 17.9756 47.7366 17.299 47.4714 17.0131C47.3091 16.8382 46.8215 16.5452 45.3799 16.5452H41.8902L39.4684 29.0074C39.448 29.1124 39.3916 29.2071 39.309 29.2752C39.2264 29.3433 39.1227 29.3805 39.0156 29.3805H34.1736C34.1056 29.3805 34.0384 29.3655 33.9768 29.3365C33.9153 29.3075 33.8609 29.2652 33.8177 29.2127C33.7744 29.1603 33.7433 29.0988 33.7265 29.0329C33.7098 28.967 33.7078 28.8981 33.7208 28.8313L38.0752 6.4268C38.0957 6.32174 38.152 6.22707 38.2346 6.15899C38.3172 6.09092 38.4209 6.05368 38.528 6.05365H43.37C43.438 6.05356 43.5053 6.06855 43.5668 6.09754C43.6284 6.12653 43.6828 6.16879 43.7261 6.2213C43.7694 6.27381 43.8005 6.33525 43.8172 6.40122C43.8339 6.46719 43.8358 6.53604 43.8228 6.60283L42.7719 12.0102H46.5261C49.386 12.0102 51.3254 12.5145 52.4548 13.5516C53.6062 14.6098 53.9652 16.3018 53.5228 18.5812L51.4966 29.0069C51.4762 29.1119 51.4198 29.2066 51.3373 29.2747C51.2547 29.3427 51.151 29.38 51.044 29.38H46.125V29.3805Z" fill="black"/>
<path d="M43.37 5.59271H38.528C38.3139 5.59271 38.1065 5.66717 37.9413 5.80334C37.7761 5.9395 37.6635 6.12888 37.6226 6.33902L33.2681 28.7437C33.2421 28.8773 33.2461 29.0149 33.2796 29.1467C33.3131 29.2786 33.3753 29.4014 33.4619 29.5063C33.5484 29.6113 33.6571 29.6958 33.7802 29.7537C33.9032 29.8117 34.0376 29.8418 34.1736 29.8417H39.0155C39.2296 29.8418 39.437 29.7673 39.6022 29.6311C39.7674 29.495 39.8801 29.3056 39.921 29.0954L42.2703 17.0064H45.3799C46.819 17.0064 47.1212 17.3139 47.1331 17.327C47.2204 17.421 47.3354 17.8559 47.1459 18.8305L45.2195 28.7436C45.1935 28.8771 45.1975 29.0147 45.231 29.1466C45.2645 29.2784 45.3267 29.4012 45.4133 29.5061C45.4998 29.6111 45.6085 29.6956 45.7316 29.7536C45.8546 29.8116 45.989 29.8416 46.125 29.8416H51.044C51.2581 29.8416 51.4655 29.7671 51.6307 29.631C51.796 29.4948 51.9087 29.3054 51.9496 29.0953L53.9752 18.6694C54.4506 16.222 54.044 14.3862 52.7668 13.2122C51.5481 12.0931 49.5067 11.549 46.5261 11.549H43.3313L44.2754 6.69073C44.3013 6.55724 44.2974 6.41968 44.2639 6.28787C44.2305 6.15607 44.1683 6.03328 44.0819 5.9283C43.9953 5.82337 43.8866 5.73887 43.7635 5.68085C43.6404 5.62284 43.5061 5.59274 43.37 5.59271ZM43.37 6.51504L42.2123 12.4715H46.5261C49.2404 12.4715 51.1123 12.9453 52.1427 13.8917C53.1731 14.8385 53.4817 16.3728 53.07 18.4937L51.044 28.9194H46.125L48.0513 19.0065C48.2705 17.8787 48.1899 17.1096 47.8095 16.6994C47.4287 16.2894 46.6187 16.0841 45.3801 16.0841H41.5101L39.0158 28.9194H34.1738L38.5281 6.51504H43.37Z" fill="white"/>
<path d="M61.1845 24.9228C63.0389 24.9228 64.4235 24.5809 65.2995 23.9065C66.1661 23.2395 66.7647 22.0835 67.0786 20.4705C67.3712 18.9631 67.2598 17.9107 66.7474 17.3429C66.2236 16.7628 65.0915 16.4686 63.3822 16.4686H60.4184L58.7753 24.9231H61.1845V24.9228ZM51.4904 35.337C51.4224 35.3371 51.3552 35.322 51.2937 35.293C51.2321 35.264 51.1778 35.2218 51.1345 35.1693C51.0912 35.1168 51.0601 35.0553 51.0434 34.9894C51.0266 34.9235 51.0247 34.8546 51.0377 34.7879L55.3922 12.3833C55.4127 12.2782 55.4691 12.1835 55.5517 12.1155C55.6343 12.0474 55.7381 12.0102 55.8451 12.0102H65.2302C68.1798 12.0102 70.375 12.8112 71.7551 14.3909C73.1424 15.9787 73.5705 18.1985 73.0283 20.9885C72.8073 22.1251 72.4276 23.1807 71.8997 24.1258C71.3712 25.0721 70.6724 25.9473 69.8229 26.7284C68.8058 27.6801 67.6547 28.3704 66.4048 28.7765C65.1746 29.1772 63.5948 29.3805 61.709 29.3805H57.9087L56.824 34.9639C56.8035 35.069 56.7471 35.1637 56.6645 35.2318C56.5819 35.2999 56.4781 35.3371 56.371 35.337H51.4904Z" fill="black"/>
<path d="M60.7984 16.9295H63.382C65.4451 16.9295 66.1617 17.3822 66.4052 17.6518C66.8094 18.0998 66.8855 19.0444 66.6259 20.3828C66.3342 21.8817 65.7932 22.9445 65.0184 23.5412C64.2249 24.152 62.9349 24.4615 61.1843 24.4615H59.3347L60.7984 16.9295ZM65.23 11.5492H55.8452C55.6311 11.5492 55.4237 11.6237 55.2586 11.7599C55.0934 11.896 54.9808 12.0854 54.9399 12.2955L50.5854 34.7002C50.5595 34.8337 50.5635 34.9713 50.597 35.1031C50.6305 35.2349 50.6927 35.3577 50.7792 35.4626C50.8657 35.5676 50.9744 35.6521 51.0973 35.7101C51.2203 35.7681 51.3546 35.7982 51.4906 35.7983H56.3712C56.5853 35.7982 56.7927 35.7238 56.9579 35.5876C57.123 35.4514 57.2357 35.2621 57.2766 35.052L58.289 29.8418H61.7092C63.6433 29.8418 65.2714 29.6308 66.5481 29.2151C67.8611 28.7886 69.0693 28.0651 70.1384 27.0651C71.0226 26.2518 71.7507 25.339 72.3025 24.3512C72.8547 23.3633 73.2513 22.2615 73.4813 21.0767C74.0524 18.14 73.5885 15.7884 72.1025 14.0877C70.631 12.4034 68.319 11.5494 65.2304 11.5494M58.2161 25.3839H61.1847C63.1523 25.3839 64.618 25.0132 65.5811 24.2719C66.5445 23.5304 67.1937 22.2927 67.5313 20.5586C67.8544 18.8936 67.7073 17.7187 67.09 17.034C66.4722 16.3494 65.2363 16.0071 63.3822 16.0071H60.0381L58.2161 25.3839ZM65.2304 12.4716C68.0537 12.4716 70.1133 13.2125 71.4079 14.6945C72.7026 16.1765 73.092 18.2451 72.5758 20.9008C72.3632 21.9949 72.0036 22.9952 71.4974 23.9012C70.9907 24.8079 70.3289 25.6372 69.5111 26.3891C68.5366 27.3011 67.454 27.9511 66.2627 28.3382C65.0713 28.7263 63.5541 28.9194 61.7094 28.9194H57.5289L56.3714 34.8759H51.491L55.8453 12.4717L65.2304 12.4716Z" fill="white"/>
<defs>
<radialGradient id="paint0_radial_20_1034" cx="0" cy="0" r="1" gradientUnits="userSpaceOnUse" gradientTransform="translate(25.5318 7.91058) scale(69.7749 69.7749)">
<stop stop-color="#AEB2D5"/>
<stop offset="0.3" stop-color="#AEB2D5"/>
<stop offset="0.75" stop-color="#484C89"/>
<stop offset="1" stop-color="#484C89"/>
</radialGradient>
</defs>
</svg>
