<svg width="60" height="68" viewBox="0 0 60 68" fill="none" xmlns="http://www.w3.org/2000/svg">
<path d="M52.5516 13.0912C52.5046 12.748 52.2039 12.5581 51.956 12.5374C51.7081 12.5167 46.8686 12.4431 46.8686 12.4431C46.8686 12.4431 42.8212 8.51226 42.4214 8.11217C42.0216 7.71209 41.2405 7.83346 40.9374 7.92269L38.9035 8.55236C38.6909 7.86161 38.3773 7.01324 37.9303 6.16076C36.4891 3.41158 34.3792 1.95639 31.8291 1.95267H31.8205C31.6437 1.95267 31.4675 1.96927 31.2912 1.98534C31.217 1.89469 31.1401 1.80626 31.0607 1.72017C29.9505 0.531872 28.5248 -0.0470707 26.8183 0.0029893C23.5242 0.0973995 20.2453 2.47598 17.5858 6.70014C15.7137 9.6732 14.2914 13.408 13.8869 16.2986C10.1055 17.4697 7.45973 18.2891 7.4025 18.307C5.49372 18.906 5.4337 18.966 5.1834 20.7643C4.99391 22.1258 0 60.7474 0 60.7474L41.8584 67.9858L60 63.4765C60 63.4765 52.5984 13.4345 52.5516 13.0912ZM16.2319 15.5723C17.3638 10.28 21.7983 2.3404 26.8817 2.19421C27.655 2.17801 28.3063 2.34771 28.8626 2.7138C27.9729 3.17576 27.1123 3.83968 26.3051 4.70544C24.213 6.94977 22.6104 10.4346 21.9713 13.795L16.2319 15.5723ZM31.3686 10.8853L24.3803 13.0491C25.0564 10.4627 26.3362 7.88763 27.9089 6.2006C28.494 5.57306 29.3124 4.87275 30.2815 4.47293C31.1932 6.37269 31.3907 9.06584 31.3686 10.8853ZM33.5582 10.2073C33.5339 8.53934 33.3348 6.21946 32.5578 4.214C35.057 4.68751 36.2875 7.51531 36.8068 9.20141L33.5582 10.2073Z" fill="#95BF47"/>
<path d="M51.956 12.5374C51.708 12.5167 46.8686 12.4431 46.8686 12.4431C46.8686 12.4431 42.8211 8.51228 42.4213 8.1122C42.2722 7.96295 42.07 7.8866 41.8594 7.85367L41.8604 67.9854L59.9999 63.4765C59.9999 63.4765 52.5985 13.4345 52.5515 13.0912C52.5045 12.748 52.2039 12.5581 51.956 12.5374Z" fill="#5E8E3E"/>
<path d="M31.8049 21.8653L29.6978 29.7475C29.6978 29.7475 27.3475 28.6773 24.561 28.8532C20.4753 29.1112 20.4319 31.6884 20.4727 32.3343C20.6952 35.8596 29.9692 36.6299 30.4905 44.8867C30.9007 51.3829 27.0449 55.8264 21.489 56.1772C14.822 56.5981 11.1509 52.6641 11.1509 52.6641L12.5636 46.6536C12.5636 46.6536 16.2581 49.441 19.2154 49.2543C21.1472 49.1323 21.8374 47.5612 21.7673 46.45C21.4769 41.8514 13.9252 42.1223 13.4481 34.5664C13.0465 28.2071 17.2223 21.7647 26.4366 21.1829C29.9868 20.9589 31.8049 21.8653 31.8049 21.8653Z" fill="white"/>
</svg>
