<svg width="65" height="65" viewBox="0 0 65 65" fill="none" xmlns="http://www.w3.org/2000/svg">
<path d="M19.498 20.0602H15.9085L25.6945 47.7229L31.1731 32.0673L26.9255 20.0602H23.1382V17.4243H39.9095V20.0602H35.9821L45.7679 47.7229L49.2856 37.6705C53.9 24.7914 45.5035 20.7795 45.5035 17.9052C45.5035 15.0309 47.8336 12.701 50.7078 12.701C50.8633 12.701 51.0143 12.7094 51.1622 12.7232C46.2922 8.12587 39.7255 5.30661 32.4997 5.30661C23.0581 5.30661 14.7415 10.1193 9.86608 17.4243H19.4978V20.0602H19.498ZM5.30652 32.5001C5.30652 42.9112 11.1582 51.9542 19.751 56.5238L7.47908 21.8339C6.08114 25.1089 5.30652 28.714 5.30652 32.5001ZM56.1662 19.1C56.5552 21.3903 56.4375 23.9645 55.8406 26.5487H55.9487L55.5375 27.7236C55.2939 28.572 54.9871 29.4398 54.6386 30.2925L45.2817 56.5062C53.8565 51.9311 59.6932 42.8978 59.6932 32.4999C59.6932 27.6276 58.4105 23.0553 56.1662 19.1Z" fill="#00769D"/>
<path d="M24.1133 58.3733C26.7551 59.229 29.573 59.6932 32.5 59.6932C35.2918 59.6932 37.9851 59.2719 40.5205 58.4903L32.5661 36.0051L24.1133 58.3733Z" fill="#00769D"/>
<path d="M55.4809 9.519C49.3425 3.38058 41.1809 0 32.4999 0C23.8188 0 15.6574 3.38058 9.51894 9.519C3.38052 15.6574 -6.10352e-05 23.8188 -6.10352e-05 32.5001C-6.10352e-05 41.1812 3.38052 49.3426 9.51894 55.481C15.6574 61.6194 23.8189 65 32.5 65C41.1811 65 49.3425 61.6194 55.4811 55.481C61.6195 49.3426 65.0001 41.181 65.0001 32.5001C64.9999 23.8188 61.6194 15.6574 55.4809 9.519ZM32.4999 62.7074C15.8435 62.7074 2.29257 49.1564 2.29257 32.5001C2.29257 15.8437 15.8435 2.29263 32.4999 2.29263C49.1562 2.29263 62.7072 15.8437 62.7072 32.5001C62.7072 49.1564 49.1564 62.7074 32.4999 62.7074Z" fill="#00769D"/>
</svg>
